<svg width="29" height="29" viewBox="0 0 29 29" fill="none" xmlns="http://www.w3.org/2000/svg">
<path fill-rule="evenodd" clip-rule="evenodd" d="M19.7964 16.9167H10.5913L8.61325 9.66668H23.4214L19.7964 16.9167ZM25.4756 8.3955C25.0322 7.67775 24.2637 7.25 23.4202 7.25H7.95358L7.20803 4.51554C7.06424 3.98992 6.58695 3.625 6.04199 3.625H3.62533C2.95712 3.625 2.41699 4.16633 2.41699 4.83333C2.41699 5.50033 2.95712 6.04167 3.62533 6.04167H5.11883L8.50095 18.4428C8.64474 18.9684 9.12203 19.3333 9.66699 19.3333H20.542C21 19.3333 21.418 19.0747 21.6235 18.6651L25.582 10.7469C25.9602 9.99171 25.9191 9.11325 25.4756 8.3955ZM9.06236 21.75C8.06186 21.75 7.24986 22.5608 7.24986 23.5625C7.24986 24.5642 8.06186 25.375 9.06236 25.375C10.0629 25.375 10.8749 24.5642 10.8749 23.5625C10.8749 22.5608 10.0629 21.75 9.06236 21.75ZM19.3336 23.5625C19.3336 22.5608 20.1456 21.75 21.1461 21.75C22.1466 21.75 22.9586 22.5608 22.9586 23.5625C22.9586 24.5642 22.1466 25.375 21.1461 25.375C20.1456 25.375 19.3336 24.5642 19.3336 23.5625Z" fill="white"/>
<mask id="mask0" mask-type="alpha" maskUnits="userSpaceOnUse" x="2" y="3" width="24" height="23">
<path fill-rule="evenodd" clip-rule="evenodd" d="M19.7964 16.9167H10.5913L8.61325 9.66668H23.4214L19.7964 16.9167ZM25.4756 8.3955C25.0322 7.67775 24.2637 7.25 23.4202 7.25H7.95358L7.20803 4.51554C7.06424 3.98992 6.58695 3.625 6.04199 3.625H3.62533C2.95712 3.625 2.41699 4.16633 2.41699 4.83333C2.41699 5.50033 2.95712 6.04167 3.62533 6.04167H5.11883L8.50095 18.4428C8.64474 18.9684 9.12203 19.3333 9.66699 19.3333H20.542C21 19.3333 21.418 19.0747 21.6235 18.6651L25.582 10.7469C25.9602 9.99171 25.9191 9.11325 25.4756 8.3955ZM9.06236 21.75C8.06186 21.75 7.24986 22.5608 7.24986 23.5625C7.24986 24.5642 8.06186 25.375 9.06236 25.375C10.0629 25.375 10.8749 24.5642 10.8749 23.5625C10.8749 22.5608 10.0629 21.75 9.06236 21.75ZM19.3336 23.5625C19.3336 22.5608 20.1456 21.75 21.1461 21.75C22.1466 21.75 22.9586 22.5608 22.9586 23.5625C22.9586 24.5642 22.1466 25.375 21.1461 25.375C20.1456 25.375 19.3336 24.5642 19.3336 23.5625Z" fill="white"/>
</mask>
<g mask="url(#mask0)">
<rect width="29" height="29" fill="white"/>
</g>
</svg>
