<svg width="35" height="35" viewBox="0 0 35 35" fill="none" xmlns="http://www.w3.org/2000/svg">
<path d="M17.5 0C7.83603 0 0 7.83449 0 17.4992C0 27.164 7.83526 34.9985 17.5 34.9985C27.1655 34.9985 35 27.164 35 17.4992C35 7.83449 27.1655 0 17.5 0ZM17.5 5.23247C20.6978 5.23247 23.289 7.8245 23.289 11.0207C23.289 14.2177 20.6978 16.8089 17.5 16.8089C14.3038 16.8089 11.7125 14.2177 11.7125 11.0207C11.7125 7.8245 14.3038 5.23247 17.5 5.23247ZM17.4962 30.4232C14.3069 30.4232 11.3858 29.2617 9.13281 27.3392C8.58396 26.8711 8.26726 26.1847 8.26726 25.4644C8.26726 22.2228 10.8908 19.6285 14.1331 19.6285H20.8684C24.1115 19.6285 26.725 22.2228 26.725 25.4644C26.725 26.1854 26.4099 26.8703 25.8603 27.3385C23.608 29.2617 20.6862 30.4232 17.4962 30.4232Z" fill="white"/>
</svg>
