<svg width="82" height="131" viewBox="0 0 82 131" fill="none" xmlns="http://www.w3.org/2000/svg">
<g filter="url(#filter0_d)">
<path d="M39.0259 84.2527H21.5742V120.349H39.0259V84.2527Z" fill="#4094D3"/>
<path d="M39.0259 113.994H21.5742V120.349H39.0259V113.994Z" fill="#3786B7"/>
<path d="M60.3812 84.2527H42.9297V120.349H60.3812V84.2527Z" fill="#4094D3"/>
<path d="M60.3812 84.2527H42.9297V93.1112H60.3812V84.2527Z" fill="#4BA6DD"/>
<path d="M39.0963 84.2527H21.6449V93.1112H39.0963V84.2527Z" fill="#4BA6DD"/>
<path d="M39.0259 91.3457H21.5742V93.1086H39.0259V91.3457Z" fill="#3786B7"/>
<path d="M60.3812 91.3457H42.9297V93.1086H60.3812V91.3457Z" fill="#3786B7"/>
<path d="M60.3812 113.994H42.9297V120.349H60.3812V113.994Z" fill="#3786B7"/>
<path d="M42.883 84.2527H39.0253V93.1112H42.883V84.2527Z" fill="#5CB7E5"/>
<path d="M60.4261 79.8813H21.4807V84.2504H60.4261V79.8813Z" fill="#5CB7E5"/>
<path d="M56.2671 43.4996H25.6415C22.6391 43.4996 21.4819 79.8534 21.4819 79.8534H60.4267C60.427 79.8531 59.8699 43.4996 56.2671 43.4996Z" fill="#CA261D"/>
<path d="M52.2223 40.2126H29.6866C27.4775 40.2126 25.2491 43.8375 25.2491 43.8375H56.6598C56.6595 43.8372 54.8737 40.2126 52.2223 40.2126Z" fill="#E24844"/>
<path d="M69.8871 74.1492H62.998V79.1093H69.8871V74.1492Z" fill="#ECBF30"/>
<path d="M70.9896 66.7081C70.4385 63.4012 64.4305 48.2461 62.9159 46.5926C61.4017 44.9392 57.7629 46.317 57.7629 46.317L59.1408 62.2992L60.7942 68.6369L61.6207 75.5259L70.7141 75.8015C70.7141 74.9748 71.5408 70.0147 70.9896 66.7081Z" fill="#BA1713"/>
<path d="M19.002 74.1492H12.1129V79.1093H19.002V74.1492Z" fill="#ECBF30"/>
<path d="M19.0844 46.5926C17.5698 48.2461 11.5618 63.4015 11.0107 66.7081C10.4595 70.0147 11.2862 74.9745 11.2862 75.8015L20.3796 75.5259L21.2061 68.6369L22.8595 62.2992L24.2374 46.317C24.2371 46.317 20.5986 44.9394 19.0844 46.5926Z" fill="#BA1713"/>
<path d="M15.5112 77.4547C12.4674 77.4547 10 79.9222 10 82.9659C10 84.6941 10.7967 86.2349 12.0413 87.2452C12.0413 87.2452 13.4718 85.0972 13.3032 84.9057C12.848 84.3882 12.5718 83.7092 12.5718 82.9659C12.5718 81.3427 13.8877 80.0268 15.5109 80.0268C17.1344 80.0268 18.4503 81.3427 18.4503 82.9659C18.4503 83.8382 18.0689 84.6202 17.4648 85.1578C17.2637 85.3369 18.6653 87.4815 18.6653 87.4815C20.0893 86.485 21.0221 84.8358 21.0221 82.9662C21.0224 79.9222 18.555 77.4547 15.5112 77.4547Z" fill="#ECBF30"/>
<path d="M47.7512 38.3262H34.2489C33.3359 38.3262 32.5957 39.0664 32.5957 39.9794C32.5957 40.8927 33.3359 41.6328 34.2489 41.6328H47.7512C48.6642 41.6328 49.4043 40.8927 49.4043 39.9794C49.4046 39.0664 48.6642 38.3262 47.7512 38.3262Z" fill="#E5B428"/>
<path d="M43.5213 10.9414H38.479C37.3105 10.9414 36.3629 11.8887 36.3629 13.0574V17.8384C36.3629 19.0072 37.3105 19.9544 38.479 19.9544H43.5213C44.6898 19.9544 45.6374 19.0069 45.6374 17.8384V13.0574C45.6374 11.8887 44.6901 10.9414 43.5213 10.9414Z" fill="#E5B428"/>
<path d="M38.479 10.9414C37.3105 10.9414 36.3629 11.8887 36.3629 13.0574V17.8384C36.3629 19.0072 37.3105 19.9544 38.479 19.9544H41.087V10.9414H38.479Z" fill="#ECBF30"/>
<path d="M46.9213 14.9709H35.079C30.9482 14.9709 27.5997 18.3191 27.5997 22.4502V31.6737C27.5997 35.8045 30.9482 39.153 35.079 39.153H46.9213C51.0521 39.153 54.4006 35.8045 54.4006 31.6737V22.4502C54.4006 18.3191 51.0521 14.9709 46.9213 14.9709Z" fill="#ECBF30"/>
<path d="M35.079 14.9709C30.9482 14.9709 27.5997 18.3191 27.5997 22.4502V31.6737C27.5997 35.8045 30.9482 39.153 35.079 39.153H40.984V14.9709H35.079Z" fill="#F7CA4D"/>
<path d="M36.9684 27.642C37.8486 27.642 38.5621 26.9284 38.5621 26.0482C38.5621 25.168 37.8486 24.4545 36.9684 24.4545C36.0881 24.4545 35.3746 25.168 35.3746 26.0482C35.3746 26.9284 36.0881 27.642 36.9684 27.642Z" fill="#353535"/>
<path d="M45.0319 27.642C45.9121 27.642 46.6256 26.9284 46.6256 26.0482C46.6256 25.168 45.9121 24.4545 45.0319 24.4545C44.1517 24.4545 43.4381 25.168 43.4381 26.0482C43.4381 26.9284 44.1517 27.642 45.0319 27.642Z" fill="#353535"/>
<path d="M46.1647 31.3071C45.9964 31.1147 45.7041 31.0955 45.5117 31.2633C45.4883 31.2837 43.158 33.2973 40.7905 33.2973C38.4515 33.2973 36.4486 31.306 36.4285 31.2862C36.2486 31.1046 35.956 31.1034 35.7744 31.2831C35.5928 31.4627 35.5911 31.755 35.7704 31.9369C35.8627 32.0303 38.0593 34.223 40.7902 34.223C43.5015 34.223 46.0148 32.0527 46.1203 31.9601C46.3133 31.7921 46.3328 31.4995 46.1647 31.3071Z" fill="#353535"/>
</g>
<defs>
<filter id="filter0_d" x="0" y="0.941406" width="81.1791" height="129.408" filterUnits="userSpaceOnUse" color-interpolation-filters="sRGB">
<feFlood flood-opacity="0" result="BackgroundImageFix"/>
<feColorMatrix in="SourceAlpha" type="matrix" values="0 0 0 0 0 0 0 0 0 0 0 0 0 0 0 0 0 0 127 0"/>
<feOffset/>
<feGaussianBlur stdDeviation="5"/>
<feColorMatrix type="matrix" values="0 0 0 0 0 0 0 0 0 0 0 0 0 0 0 0 0 0 0.075 0"/>
<feBlend mode="normal" in2="BackgroundImageFix" result="effect1_dropShadow"/>
<feBlend mode="normal" in="SourceGraphic" in2="effect1_dropShadow" result="shape"/>
</filter>
</defs>
</svg>
