<svg width="60" height="50" viewBox="0 0 60 50" fill="none" xmlns="http://www.w3.org/2000/svg">
<path d="M44.858 0C39.6848 0 35.1149 2.59712 32.384 6.55445C32.384 6.55445 31.4619 7.93433 29.9993 7.93433C28.5381 7.93433 27.616 6.55445 27.616 6.55445C24.8838 2.59712 20.3166 0 15.142 0C6.77874 0 0 6.77874 0 15.1446C0 17.12 0.388256 18.9996 1.07557 20.7297C5.31753 33.9016 24.2896 49.3872 29.9993 49.9526C35.7104 49.3872 54.6798 33.9016 58.9244 20.7297C59.6117 19.0009 60 17.12 60 15.1446C60 6.77874 53.2213 0 44.858 0Z" fill="#E0E0E0"/>
</svg>
