<svg width="28" height="23" viewBox="0 0 28 23" fill="none" xmlns="http://www.w3.org/2000/svg">
<path d="M20.5175 0.760002C18.2206 0.760002 16.1916 1.91312 14.9791 3.67018C14.9791 3.67018 14.5697 4.28284 13.9203 4.28284C13.2715 4.28284 12.8621 3.67018 12.8621 3.67018C11.649 1.91312 9.62113 0.760002 7.32363 0.760002C3.61035 0.760002 0.600586 3.76976 0.600586 7.48421C0.600586 8.36128 0.772972 9.19584 1.07814 9.964C2.96157 15.8123 11.3852 22.6879 13.9203 22.9389C16.456 22.6879 24.8784 15.8123 26.763 9.964C27.0682 9.19642 27.2406 8.36128 27.2406 7.48421C27.2406 3.76976 24.2308 0.760002 20.5175 0.760002Z" fill="#E0E0E0"/>
</svg>
