<svg width="269" height="269" viewBox="0 0 269 269" fill="none" xmlns="http://www.w3.org/2000/svg">
<path d="M131.664 1.55506C131.142 0.91163 130.198 0.813027 129.554 1.33484C128.911 1.85665 128.812 2.80126 129.334 3.4447L131.664 1.55506ZM130.499 259.5L147.817 259.774L139.395 244.639L130.499 259.5ZM131.155 5.75929C131.662 6.41434 132.604 6.53424 133.26 6.02708C133.915 5.51993 134.034 4.57778 133.527 3.92274L131.155 5.75929ZM137.181 8.74759C136.687 8.0825 135.748 7.94372 135.083 8.43761C134.418 8.93151 134.279 9.87106 134.773 10.5362L137.181 8.74759ZM138.32 15.395C138.803 16.068 139.74 16.2218 140.413 15.7386C141.086 15.2554 141.24 14.3182 140.756 13.6453L138.32 15.395ZM144.271 18.6175C143.798 17.9375 142.863 17.7699 142.183 18.2431C141.503 18.7163 141.335 19.6511 141.808 20.3311L144.271 18.6175ZM145.205 25.2866C145.669 25.9731 146.601 26.1539 147.288 25.6903C147.975 25.2267 148.155 24.2943 147.692 23.6077L145.205 25.2866ZM151.041 28.6427C150.587 27.9497 149.657 27.7561 148.964 28.2101C148.271 28.6641 148.077 29.5939 148.532 30.2868L151.041 28.6427ZM151.794 35.3426C152.238 36.0418 153.165 36.2484 153.865 35.804C154.564 35.3597 154.77 34.4327 154.326 33.7335L151.794 35.3426ZM157.541 38.8722C157.107 38.1668 156.183 37.9471 155.477 38.3815C154.772 38.8159 154.552 39.7399 154.987 40.4453L157.541 38.8722ZM158.105 45.5922C158.529 46.3038 159.45 46.5369 160.162 46.1128C160.873 45.6886 161.106 44.7679 160.682 44.0563L158.105 45.5922ZM163.747 49.2859C163.333 48.568 162.416 48.3212 161.698 48.7347C160.98 49.1482 160.734 50.0653 161.147 50.7832L163.747 49.2859ZM164.109 56.0188C164.512 56.743 165.425 57.0039 166.149 56.6015C166.873 56.1992 167.134 55.286 166.732 54.5618L164.109 56.0188ZM169.634 59.8855C169.243 59.1549 168.335 58.8793 167.604 59.27C166.873 59.6606 166.598 60.5695 166.988 61.3L169.634 59.8855ZM169.78 66.6276C170.158 67.3646 171.062 67.6554 171.8 67.2772C172.537 66.8989 172.827 65.9948 172.449 65.2578L169.78 66.6276ZM175.172 70.6796C174.807 69.936 173.908 69.6292 173.164 69.9943C172.421 70.3595 172.114 71.2583 172.479 72.0019L175.172 70.6796ZM175.079 77.4233C175.431 78.1736 176.324 78.4971 177.074 78.1459C177.824 77.7947 178.148 76.9017 177.796 76.1514L175.079 77.4233ZM180.316 81.6737C179.98 80.9166 179.093 80.5755 178.336 80.9119C177.579 81.2482 177.238 82.1346 177.574 82.8917L180.316 81.6737ZM179.955 88.4035C180.275 89.1675 181.154 89.5271 181.918 89.2067C182.682 88.8863 183.042 88.0072 182.721 87.2432L179.955 88.4035ZM185.007 92.8658C184.704 92.0949 183.833 91.7157 183.062 92.019C182.291 92.3222 181.912 93.193 182.215 93.964L185.007 92.8658ZM184.346 99.5747C184.631 100.353 185.492 100.752 186.27 100.468C187.048 100.183 187.448 99.3215 187.163 98.5435L184.346 99.5747ZM189.179 104.276C188.915 103.491 188.064 103.069 187.279 103.334C186.494 103.599 186.072 104.45 186.337 105.235L189.179 104.276ZM188.175 110.942C188.418 111.734 189.257 112.18 190.049 111.937C190.841 111.694 191.286 110.855 191.043 110.063L188.175 110.942ZM192.741 115.902C192.522 115.103 191.697 114.634 190.898 114.853C190.099 115.072 189.629 115.897 189.848 116.696L192.741 115.902ZM191.341 122.494C191.534 123.3 192.344 123.796 193.15 123.602C193.955 123.409 194.451 122.599 194.258 121.794L191.341 122.494ZM195.577 127.736C195.412 126.924 194.62 126.4 193.808 126.565C192.996 126.73 192.472 127.522 192.637 128.334L195.577 127.736ZM193.719 134.218C193.853 135.035 194.624 135.589 195.442 135.455C196.259 135.321 196.813 134.55 196.679 133.732L193.719 134.218ZM197.543 139.772C197.443 138.95 196.696 138.364 195.873 138.464C195.051 138.564 194.465 139.312 194.565 140.134L197.543 139.772ZM195.153 146.075C195.216 146.901 195.937 147.52 196.763 147.457C197.589 147.395 198.208 146.674 198.145 145.848L195.153 146.075ZM198.459 151.951C198.437 151.123 197.748 150.469 196.92 150.491C196.091 150.513 195.438 151.202 195.46 152.03L198.459 151.951ZM195.46 157.937C195.438 158.765 196.091 159.454 196.919 159.476C197.747 159.498 198.436 158.845 198.459 158.017L195.46 157.937ZM198.138 163.989C198.205 163.163 197.589 162.439 196.764 162.372C195.938 162.305 195.214 162.921 195.147 163.746L198.138 163.989ZM194.518 169.529C194.406 170.35 194.98 171.106 195.801 171.218C196.622 171.331 197.378 170.756 197.491 169.936L194.518 169.529ZM196.514 175.84C196.672 175.026 196.141 174.239 195.328 174.081C194.515 173.923 193.727 174.454 193.569 175.267L196.514 175.84ZM192.3 180.944C192.096 181.747 192.583 182.563 193.386 182.767C194.189 182.97 195.005 182.484 195.208 181.681L192.3 180.944ZM193.576 187.44C193.824 186.65 193.385 185.808 192.594 185.56C191.804 185.312 190.962 185.752 190.714 186.542L193.576 187.44ZM188.818 192.044C188.526 192.82 188.919 193.685 189.694 193.976C190.47 194.268 191.335 193.875 191.626 193.1L188.818 192.044ZM189.368 198.642C189.702 197.884 189.357 196.999 188.598 196.666C187.84 196.333 186.955 196.677 186.622 197.436L189.368 198.642ZM184.138 202.703C183.765 203.442 184.062 204.345 184.802 204.718C185.541 205.091 186.444 204.793 186.817 204.054L184.138 202.703ZM183.986 209.321C184.397 208.602 184.147 207.686 183.427 207.275C182.708 206.864 181.791 207.114 181.381 207.834L183.986 209.321ZM178.366 212.819C177.92 213.517 178.124 214.445 178.822 214.891C179.52 215.337 180.448 215.133 180.894 214.435L178.366 212.819ZM177.558 219.386C178.037 218.71 177.877 217.774 177.202 217.295C176.526 216.816 175.59 216.975 175.11 217.651L177.558 219.386ZM171.628 222.327C171.118 222.98 171.233 223.922 171.886 224.432C172.539 224.942 173.482 224.827 173.992 224.174L171.628 222.327ZM170.205 228.802C170.744 228.173 170.67 227.226 170.041 226.687C169.412 226.148 168.465 226.222 167.926 226.851L170.205 228.802ZM164.032 231.207C163.467 231.812 163.499 232.762 164.105 233.327C164.711 233.892 165.66 233.859 166.225 233.254L164.032 231.207ZM162.072 237.522C162.662 236.94 162.668 235.991 162.087 235.401C161.505 234.811 160.555 234.805 159.965 235.386L162.072 237.522ZM155.717 239.41C155.104 239.968 155.059 240.916 155.617 241.529C156.174 242.142 157.123 242.187 157.735 241.629L155.717 239.41ZM153.246 245.554C153.881 245.021 153.963 244.075 153.43 243.44C152.897 242.806 151.951 242.724 151.317 243.257L153.246 245.554ZM146.764 246.933C146.109 247.44 145.99 248.383 146.498 249.037C147.005 249.692 147.948 249.811 148.602 249.303L146.764 246.933ZM143.828 252.858C144.502 252.376 144.658 251.44 144.177 250.765C143.695 250.091 142.759 249.935 142.085 250.416L143.828 252.858ZM137.251 253.718C136.558 254.171 136.362 255.1 136.815 255.794C137.267 256.488 138.197 256.684 138.89 256.231L137.251 253.718ZM133.804 259.377C134.52 258.96 134.763 258.042 134.346 257.326C133.929 256.61 133.011 256.367 132.295 256.784L133.804 259.377ZM130.499 2.49988C129.334 3.4447 129.334 3.44468 129.334 3.44465C129.334 3.44465 129.334 3.44464 129.334 3.44464C129.334 3.44463 129.334 3.44464 129.334 3.44465C129.334 3.44469 129.334 3.44477 129.334 3.44492C129.334 3.44518 129.335 3.44564 129.335 3.44631C129.336 3.44763 129.338 3.44975 129.34 3.45264C129.345 3.45845 129.352 3.46739 129.362 3.47946C129.381 3.50359 129.411 3.5402 129.45 3.58911C129.529 3.68694 129.646 3.83397 129.801 4.02877C130.11 4.41838 130.567 4.99905 131.155 5.75929L133.527 3.92274C132.931 3.15287 132.467 2.56297 132.151 2.16454C131.993 1.96532 131.872 1.81397 131.79 1.71192C131.749 1.66088 131.718 1.62218 131.697 1.59598C131.686 1.58288 131.678 1.5729 131.673 1.56608C131.67 1.56266 131.668 1.56003 131.666 1.55819C131.666 1.55728 131.665 1.55656 131.665 1.55604C131.665 1.55577 131.664 1.55556 131.664 1.5554C131.664 1.55532 131.664 1.55525 131.664 1.55519C131.664 1.55517 131.664 1.55513 131.664 1.55512C131.664 1.55509 131.664 1.55506 130.499 2.49988ZM134.773 10.5362C135.832 11.9627 137.022 13.5876 138.32 15.395L140.756 13.6453C139.449 11.8242 138.25 10.1864 137.181 8.74759L134.773 10.5362ZM141.808 20.3311C142.895 21.8918 144.03 23.5457 145.205 25.2866L147.692 23.6077C146.508 21.8548 145.365 20.1892 144.271 18.6175L141.808 20.3311ZM148.532 30.2868C149.598 31.9137 150.687 33.6003 151.794 35.3426L154.326 33.7335C153.211 31.9791 152.114 30.2808 151.041 28.6427L148.532 30.2868ZM154.987 40.4453C156.017 42.1193 157.058 43.8359 158.105 45.5922L160.682 44.0563C159.628 42.2871 158.579 40.5581 157.541 38.8722L154.987 40.4453ZM161.147 50.7832C162.134 52.497 163.123 54.2431 164.109 56.0188L166.732 54.5618C165.738 52.7722 164.741 51.0127 163.747 49.2859L161.147 50.7832ZM166.988 61.3C167.925 63.0517 168.857 64.8283 169.78 66.6276L172.449 65.2578C171.518 63.443 170.578 61.6515 169.634 59.8855L166.988 61.3ZM172.479 72.0019C173.357 73.7903 174.225 75.5981 175.079 77.4233L177.796 76.1514C176.934 74.3088 176.058 72.4842 175.172 70.6796L172.479 72.0019ZM177.574 82.8917C178.384 84.7148 179.179 86.5527 179.955 88.4035L182.721 87.2432C181.937 85.3725 181.134 83.5153 180.316 81.6737L177.574 82.8917ZM182.215 93.964C182.947 95.824 183.658 97.6949 184.346 99.5747L187.163 98.5435C186.467 96.6405 185.747 94.7473 185.007 92.8658L182.215 93.964ZM186.337 105.235C186.976 107.131 187.59 109.034 188.175 110.942L191.043 110.063C190.45 108.127 189.827 106.197 189.179 104.276L186.337 105.235ZM189.848 116.696C190.378 118.626 190.876 120.559 191.341 122.494L194.258 121.794C193.786 119.827 193.279 117.862 192.741 115.902L189.848 116.696ZM192.637 128.334C193.036 130.297 193.398 132.258 193.719 134.218L196.679 133.732C196.352 131.734 195.983 129.735 195.577 127.736L192.637 128.334ZM194.565 140.134C194.807 142.12 195.004 144.101 195.153 146.075L198.145 145.848C197.992 143.827 197.79 141.801 197.543 139.772L194.565 140.134ZM195.46 152.03C195.486 153.022 195.499 154.013 195.499 155H198.499C198.499 153.986 198.485 152.969 198.459 151.951L195.46 152.03ZM195.499 155C195.499 155.986 195.486 156.965 195.46 157.937L198.459 158.017C198.485 157.019 198.499 156.013 198.499 155H195.499ZM195.147 163.746C194.989 165.705 194.778 167.633 194.518 169.529L197.491 169.936C197.758 167.985 197.974 166.003 198.138 163.989L195.147 163.746ZM193.569 175.267C193.195 177.194 192.77 179.086 192.3 180.944L195.208 181.681C195.692 179.769 196.129 177.822 196.514 175.84L193.569 175.267ZM190.714 186.542C190.127 188.414 189.493 190.248 188.818 192.044L191.626 193.1C192.32 191.252 192.972 189.366 193.576 187.44L190.714 186.542ZM186.622 197.436C185.833 199.232 185.003 200.987 184.138 202.703L186.817 204.054C187.705 202.292 188.557 200.488 189.368 198.642L186.622 197.436ZM181.381 207.834C180.407 209.539 179.4 211.201 178.366 212.819L180.894 214.435C181.954 212.776 182.987 211.071 183.986 209.321L181.381 207.834ZM175.11 217.651C173.971 219.258 172.808 220.816 171.628 222.327L173.992 224.174C175.199 222.628 176.39 221.032 177.558 219.386L175.11 217.651ZM167.926 226.851C166.637 228.358 165.336 229.81 164.032 231.207L166.225 233.254C167.557 231.826 168.887 230.342 170.205 228.802L167.926 226.851ZM159.965 235.386C158.539 236.793 157.119 238.134 155.717 239.41L157.735 241.629C159.166 240.327 160.616 238.958 162.072 237.522L159.965 235.386ZM151.317 243.257C149.754 244.569 148.231 245.794 146.764 246.933L148.602 249.303C150.099 248.142 151.653 246.893 153.246 245.554L151.317 243.257ZM142.085 250.416C140.329 251.67 138.705 252.77 137.251 253.718L138.89 256.231C140.377 255.261 142.036 254.137 143.828 252.858L142.085 250.416Z" fill="#66CCCC"/>
</svg>
