<svg width="325" height="365" viewBox="0 0 325 365" fill="none" xmlns="http://www.w3.org/2000/svg">
<path d="M118.086 31.5027C117.259 31.4553 116.55 32.0872 116.503 32.9143C116.455 33.7414 117.087 34.4503 117.914 34.4978L118.086 31.5027ZM152 360.5L168.659 355.757L156.221 343.702L152 360.5ZM120.778 34.7632C121.601 34.8551 122.343 34.2622 122.435 33.4389C122.527 32.6156 121.934 31.8737 121.111 31.7817L120.778 34.7632ZM127.115 32.6118C126.297 32.4792 125.527 33.0346 125.394 33.8524C125.261 34.6701 125.817 35.4405 126.634 35.5732L127.115 32.6118ZM132.468 36.6429C133.28 36.8085 134.072 36.2847 134.238 35.473C134.403 34.6612 133.879 33.869 133.068 33.7034L132.468 36.6429ZM139.016 35.0355C138.211 34.8393 137.4 35.3327 137.203 36.1375C137.007 36.9424 137.501 37.7539 138.306 37.9501L139.016 35.0355ZM144.017 39.4536C144.814 39.679 145.643 39.2156 145.869 38.4184C146.094 37.6212 145.631 36.7922 144.833 36.5668L144.017 39.4536ZM150.623 38.3188C149.834 38.0644 148.989 38.4973 148.735 39.2857C148.48 40.074 148.913 40.9194 149.701 41.1738L150.623 38.3188ZM155.327 43.1043C156.105 43.3877 156.966 42.9864 157.249 42.2079C157.533 41.4295 157.131 40.5687 156.353 40.2853L155.327 43.1043ZM162.006 42.4643C161.239 42.1518 160.363 42.5204 160.051 43.2876C159.738 44.0548 160.107 44.9301 160.874 45.2426L162.006 42.4643ZM166.332 47.5889C167.086 47.9308 167.975 47.5962 168.317 46.8416C168.659 46.087 168.324 45.1982 167.57 44.8563L166.332 47.5889ZM173.034 47.463C172.294 47.0915 171.392 47.3906 171.021 48.1311C170.649 48.8716 170.949 49.773 171.689 50.1445L173.034 47.463ZM176.936 52.911C177.66 53.3124 178.573 53.0502 178.974 52.3255C179.376 51.6007 179.114 50.6879 178.389 50.2866L176.936 52.911ZM183.622 53.3291C182.915 52.8977 181.992 53.1214 181.561 53.8287C181.129 54.5359 181.353 55.459 182.06 55.8903L183.622 53.3291ZM187.052 59.0835C187.74 59.5449 188.672 59.3612 189.133 58.6732C189.595 57.9852 189.411 57.0534 188.723 56.592L187.052 59.0835ZM193.677 60.0757C193.01 59.5842 192.071 59.7265 191.58 60.3934C191.089 61.0603 191.231 61.9993 191.898 62.4908L193.677 60.0757ZM196.585 66.1115C197.229 66.6327 198.174 66.5332 198.695 65.8893C199.216 65.2453 199.117 64.3008 198.473 63.7796L196.585 66.1115ZM203.096 67.7018C202.477 67.1513 201.529 67.2069 200.978 67.826C200.428 68.4451 200.483 69.3932 201.102 69.9437L203.096 67.7018ZM205.437 73.9845C206.029 74.5635 206.979 74.5527 207.558 73.9603C208.137 73.3679 208.126 72.4182 207.534 71.8391L205.437 73.9845ZM211.775 76.1873C211.211 75.5806 210.262 75.546 209.655 76.11C209.048 76.6741 209.014 77.6232 209.578 78.23L211.775 76.1873ZM213.506 82.6638C214.04 83.297 214.986 83.3772 215.619 82.843C216.252 82.3088 216.333 81.3624 215.798 80.7292L213.506 82.6638ZM219.588 85.4468C219.085 84.7886 218.144 84.663 217.486 85.1662C216.828 85.6693 216.702 86.6107 217.205 87.2689L219.588 85.4468ZM220.683 92.0521C221.154 92.7337 222.088 92.9043 222.77 92.4333C223.451 91.9623 223.622 91.0281 223.151 90.3465L220.683 92.0521ZM226.482 95.421C226.044 94.7178 225.119 94.5028 224.416 94.9407C223.712 95.3787 223.497 96.3038 223.935 97.007L226.482 95.421ZM226.959 102.128C227.364 102.851 228.277 103.109 229.001 102.705C229.724 102.301 229.982 101.387 229.578 100.664L226.959 102.128ZM232.401 105.996C232.03 105.255 231.129 104.955 230.388 105.326C229.647 105.697 229.347 106.598 229.718 107.339L232.401 105.996ZM232.246 112.688C232.583 113.444 233.47 113.784 234.227 113.447C234.983 113.11 235.323 112.223 234.986 111.466L232.246 112.688ZM237.338 117.073C237.035 116.302 236.164 115.924 235.393 116.228C234.622 116.532 234.244 117.403 234.547 118.173L237.338 117.073ZM236.601 123.725C236.872 124.508 237.727 124.923 238.51 124.652C239.292 124.381 239.707 123.526 239.436 122.743L236.601 123.725ZM241.295 128.485C241.055 127.692 240.218 127.243 239.425 127.482C238.632 127.722 238.183 128.558 238.422 129.352L241.295 128.485ZM240.033 135.099C240.241 135.901 241.059 136.382 241.861 136.174C242.663 135.966 243.145 135.148 242.937 134.346L240.033 135.099ZM244.338 140.198C244.16 139.389 243.36 138.878 242.551 139.056C241.742 139.234 241.23 140.034 241.408 140.843L244.338 140.198ZM242.59 146.766C242.734 147.582 243.512 148.126 244.328 147.982C245.144 147.839 245.688 147.06 245.544 146.245L242.59 146.766ZM246.473 152.334C246.367 151.513 245.615 150.932 244.794 151.039C243.972 151.145 243.392 151.897 243.498 152.718L246.473 152.334ZM244.134 158.717C244.203 159.542 244.928 160.156 245.753 160.087C246.579 160.018 247.193 159.293 247.124 158.467L244.134 158.717ZM247.5 164.614C247.467 163.786 246.77 163.142 245.942 163.174C245.114 163.207 244.47 163.904 244.502 164.732L247.5 164.614ZM244.612 170.765C244.61 171.593 245.28 172.267 246.108 172.269C246.937 172.271 247.61 171.601 247.612 170.773L244.612 170.765ZM247.47 176.927C247.505 176.1 246.864 175.4 246.036 175.364C245.208 175.328 244.508 175.97 244.472 176.798L247.47 176.927ZM244.093 182.824C244.025 183.65 244.639 184.374 245.465 184.442C246.291 184.51 247.015 183.896 247.083 183.07L244.093 182.824ZM246.464 189.19C246.563 188.367 245.976 187.621 245.153 187.522C244.331 187.424 243.584 188.011 243.485 188.833L246.464 189.19ZM242.66 194.82C242.532 195.639 243.093 196.406 243.911 196.533C244.73 196.661 245.497 196.1 245.624 195.282L242.66 194.82ZM244.575 201.339C244.73 200.525 244.196 199.74 243.382 199.585C242.568 199.43 241.783 199.964 241.628 200.778L244.575 201.339ZM240.4 206.7C240.219 207.508 240.728 208.31 241.536 208.491C242.345 208.672 243.147 208.164 243.328 207.355L240.4 206.7ZM241.894 213.329C242.099 212.526 241.615 211.709 240.813 211.504C240.01 211.298 239.193 211.782 238.988 212.585L241.894 213.329ZM237.401 218.426C237.172 219.222 237.632 220.053 238.429 220.282C239.225 220.51 240.056 220.05 240.284 219.254L237.401 218.426ZM238.509 225.131C238.759 224.341 238.322 223.498 237.532 223.247C236.742 222.997 235.899 223.434 235.649 224.224L238.509 225.131ZM233.742 229.972C233.471 230.755 233.886 231.609 234.669 231.88C235.452 232.151 236.306 231.736 236.577 230.953L233.742 229.972ZM234.498 236.727C234.788 235.951 234.394 235.087 233.619 234.797C232.843 234.507 231.978 234.9 231.688 235.676L234.498 236.727ZM229.496 241.327C229.188 242.096 229.561 242.969 230.33 243.278C231.099 243.586 231.972 243.213 232.281 242.444L229.496 241.327ZM229.933 248.107C230.258 247.346 229.905 246.464 229.143 246.138C228.382 245.813 227.5 246.166 227.174 246.928L229.933 248.107ZM224.727 252.482C224.385 253.236 224.719 254.125 225.474 254.467C226.228 254.809 227.117 254.475 227.459 253.721L224.727 252.482ZM224.874 259.268C225.232 258.521 224.916 257.625 224.168 257.268C223.421 256.91 222.525 257.226 222.168 257.974L224.874 259.268ZM219.492 263.428C219.12 264.168 219.418 265.07 220.158 265.442C220.898 265.814 221.8 265.516 222.172 264.776L219.492 263.428ZM219.368 270.224C219.754 269.491 219.472 268.584 218.739 268.198C218.006 267.812 217.099 268.093 216.713 268.826L219.368 270.224ZM213.843 274.159C213.444 274.885 213.709 275.797 214.435 276.196C215.161 276.596 216.073 276.331 216.472 275.605L213.843 274.159ZM213.467 280.96C213.878 280.241 213.629 279.324 212.91 278.913C212.191 278.501 211.275 278.75 210.863 279.469L213.467 280.96ZM207.802 284.712C207.379 285.423 207.612 286.344 208.324 286.768C209.036 287.191 209.957 286.957 210.38 286.246L207.802 284.712ZM207.216 291.468C207.651 290.763 207.432 289.839 206.727 289.404C206.022 288.969 205.097 289.188 204.662 289.893L207.216 291.468ZM201.421 295.055C200.975 295.753 201.18 296.681 201.878 297.127C202.576 297.573 203.503 297.368 203.949 296.67L201.421 295.055ZM200.616 301.802C201.073 301.11 200.882 300.18 200.191 299.723C199.5 299.267 198.569 299.457 198.113 300.149L200.616 301.802ZM194.745 305.169C194.279 305.853 194.456 306.787 195.14 307.253C195.825 307.72 196.758 307.543 197.224 306.858L194.745 305.169ZM193.725 311.915C194.201 311.237 194.038 310.302 193.36 309.825C192.682 309.349 191.747 309.512 191.27 310.19L193.725 311.915ZM187.735 315.147C187.249 315.818 187.4 316.756 188.071 317.242C188.742 317.727 189.68 317.577 190.165 316.906L187.735 315.147ZM186.55 321.83C187.045 321.165 186.907 320.226 186.243 319.731C185.578 319.236 184.639 319.373 184.144 320.037L186.55 321.83ZM180.498 324.863C179.994 325.52 180.119 326.462 180.777 326.966C181.434 327.47 182.376 327.345 182.88 326.687L180.498 324.863ZM179.119 331.528C179.632 330.877 179.52 329.934 178.869 329.421C178.218 328.909 177.275 329.021 176.762 329.671L179.119 331.528ZM172.958 334.434C172.436 335.077 172.536 336.022 173.179 336.543C173.823 337.065 174.768 336.966 175.289 336.322L172.958 334.434ZM171.401 341.056C171.931 340.419 171.845 339.474 171.208 338.943C170.572 338.413 169.626 338.499 169.095 339.136L171.401 341.056ZM165.177 343.774C164.638 344.403 164.711 345.35 165.34 345.889C165.969 346.428 166.916 346.355 167.455 345.726L165.177 343.774ZM163.465 350.313C164.013 349.692 163.955 348.744 163.334 348.195C162.713 347.647 161.765 347.706 161.216 348.327L163.465 350.313ZM157.109 352.902C156.55 353.514 156.593 354.463 157.205 355.021C157.817 355.58 158.765 355.537 159.324 354.925L157.109 352.902ZM155.138 359.418C155.71 358.818 155.687 357.869 155.087 357.297C154.488 356.726 153.538 356.748 152.967 357.348L155.138 359.418ZM118 33.0003C117.914 34.4978 117.914 34.4978 117.914 34.4978C117.914 34.4978 117.914 34.4978 117.914 34.4978C117.914 34.4978 117.914 34.4978 117.914 34.4978C117.914 34.4978 117.914 34.4978 117.914 34.4978C117.914 34.4978 117.915 34.4978 117.915 34.4979C117.916 34.4979 117.919 34.4981 117.922 34.4983C117.929 34.4987 117.939 34.4993 117.954 34.5002C117.983 34.5021 118.028 34.5051 118.088 34.5093C118.21 34.5178 118.393 34.5314 118.635 34.5516C119.12 34.592 119.842 34.6587 120.778 34.7632L121.111 31.7817C120.146 31.674 119.396 31.6046 118.884 31.562C118.628 31.5406 118.432 31.526 118.298 31.5166C118.231 31.5119 118.18 31.5086 118.144 31.5063C118.127 31.5052 118.113 31.5043 118.103 31.5037C118.098 31.5035 118.095 31.5032 118.092 31.5031C118.09 31.503 118.089 31.5029 118.088 31.5029C118.088 31.5028 118.087 31.5028 118.087 31.5028C118.087 31.5028 118.087 31.5028 118.087 31.5028C118.087 31.5028 118.087 31.5028 118.087 31.5028C118.086 31.5028 118.086 31.5027 118 33.0003ZM126.634 35.5732C128.368 35.8543 130.323 36.2054 132.468 36.6429L133.068 33.7034C130.881 33.2574 128.886 32.8991 127.115 32.6118L126.634 35.5732ZM138.306 37.9501C140.125 38.3936 142.033 38.8925 144.017 39.4536L144.833 36.5668C142.813 35.9954 140.869 35.4872 139.016 35.0355L138.306 37.9501ZM149.701 41.1738C151.532 41.7646 153.41 42.4066 155.327 43.1043L156.353 40.2853C154.4 39.5745 152.487 38.9205 150.623 38.3188L149.701 41.1738ZM160.874 45.2426C162.671 45.9746 164.492 46.7556 166.332 47.5889L167.57 44.8563C165.694 44.0065 163.837 43.2103 162.006 42.4643L160.874 45.2426ZM171.689 50.1445C173.43 51.0177 175.18 51.939 176.936 52.911L178.389 50.2866C176.597 49.2942 174.81 48.3539 173.034 47.463L171.689 50.1445ZM182.06 55.8903C183.726 56.9063 185.392 57.9699 187.052 59.0835L188.723 56.592C187.026 55.4538 185.324 54.3669 183.622 53.3291L182.06 55.8903ZM191.898 62.4908C193.47 63.6496 195.034 64.8558 196.585 66.1115L198.473 63.7796C196.885 62.4948 195.286 61.2608 193.677 60.0757L191.898 62.4908ZM201.102 69.9437C202.563 71.2428 204.009 72.5892 205.437 73.9845L207.534 71.8391C206.072 70.4102 204.592 69.0317 203.096 67.7018L201.102 69.9437ZM209.578 78.23C210.908 79.6609 212.218 81.1383 213.506 82.6638L215.798 80.7292C214.48 79.1664 213.138 77.653 211.775 76.1873L209.578 78.23ZM217.205 87.2689C218.389 88.8175 219.549 90.4115 220.683 92.0521L223.151 90.3465C221.99 88.6661 220.801 87.0333 219.588 85.4468L217.205 87.2689ZM223.935 97.007C224.971 98.6694 225.979 100.376 226.959 102.128L229.578 100.664C228.575 98.8705 227.542 97.1233 226.482 95.421L223.935 97.007ZM229.718 107.339C230.589 109.08 231.433 110.862 232.246 112.688L234.986 111.466C234.155 109.6 233.292 107.777 232.401 105.996L229.718 107.339ZM234.547 118.173C235.261 119.984 235.946 121.835 236.601 123.725L239.436 122.743C238.768 120.813 238.068 118.923 237.338 117.073L234.547 118.173ZM238.422 129.352C238.989 131.23 239.526 133.145 240.033 135.099L242.937 134.346C242.42 132.354 241.872 130.401 241.295 128.485L238.422 129.352ZM241.408 140.843C241.623 141.818 241.83 142.802 242.03 143.796L244.971 143.205C244.768 142.193 244.557 141.191 244.338 140.198L241.408 140.843ZM242.03 143.796C242.228 144.785 242.415 145.775 242.59 146.766L245.544 146.245C245.365 145.231 245.174 144.217 244.971 143.205L242.03 143.796ZM243.498 152.718C243.756 154.716 243.967 156.716 244.134 158.717L247.124 158.467C246.953 156.422 246.737 154.378 246.473 152.334L243.498 152.718ZM244.502 164.732C244.582 166.743 244.618 168.754 244.612 170.765L247.612 170.773C247.618 168.721 247.581 166.668 247.5 164.614L244.502 164.732ZM244.472 176.798C244.385 178.808 244.258 180.817 244.093 182.824L247.083 183.07C247.251 181.025 247.381 178.978 247.47 176.927L244.472 176.798ZM243.485 188.833C243.246 190.832 242.97 192.828 242.66 194.82L245.624 195.282C245.94 193.256 246.22 191.225 246.464 189.19L243.485 188.833ZM241.628 200.778C241.251 202.757 240.841 204.731 240.4 206.7L243.328 207.355C243.775 205.356 244.192 203.351 244.575 201.339L241.628 200.778ZM238.988 212.585C238.487 214.539 237.958 216.486 237.401 218.426L240.284 219.254C240.849 217.287 241.386 215.312 241.894 213.329L238.988 212.585ZM235.649 224.224C235.039 226.149 234.402 228.065 233.742 229.972L236.577 230.953C237.246 229.022 237.89 227.081 238.509 225.131L235.649 224.224ZM231.688 235.676C230.979 237.57 230.248 239.454 229.496 241.327L232.281 242.444C233.041 240.55 233.781 238.644 234.498 236.727L231.688 235.676ZM227.174 246.928C226.377 248.791 225.561 250.643 224.727 252.482L227.459 253.721C228.302 251.863 229.127 249.992 229.933 248.107L227.174 246.928ZM222.168 257.974C221.291 259.806 220.399 261.625 219.492 263.428L222.172 264.776C223.087 262.955 223.989 261.119 224.874 259.268L222.168 257.974ZM216.713 268.826C215.768 270.621 214.811 272.399 213.843 274.159L216.472 275.605C217.448 273.829 218.414 272.035 219.368 270.224L216.713 268.826ZM210.863 279.469C209.851 281.236 208.83 282.984 207.802 284.712L210.38 286.246C211.416 284.504 212.446 282.742 213.467 280.96L210.863 279.469ZM204.662 289.893C203.586 291.637 202.505 293.358 201.421 295.055L203.949 296.67C205.041 294.96 206.131 293.226 207.216 291.468L204.662 289.893ZM198.113 300.149C196.99 301.85 195.866 303.524 194.745 305.169L197.224 306.858C198.353 305.201 199.485 303.515 200.616 301.802L198.113 300.149ZM191.27 310.19C190.085 311.877 188.906 313.53 187.735 315.147L190.165 316.906C191.344 315.278 192.532 313.613 193.725 311.915L191.27 310.19ZM184.144 320.037C182.914 321.689 181.697 323.298 180.498 324.863L182.88 326.687C184.087 325.112 185.311 323.492 186.55 321.83L184.144 320.037ZM176.762 329.671C175.465 331.318 174.195 332.906 172.958 334.434L175.289 336.322C176.535 334.784 177.813 333.185 179.119 331.528L176.762 329.671ZM169.095 339.136C167.734 340.771 166.425 342.318 165.177 343.774L167.455 345.726C168.712 344.26 170.03 342.702 171.401 341.056L169.095 339.136ZM161.216 348.327C159.706 350.038 158.329 351.566 157.109 352.902L159.324 354.925C160.555 353.578 161.943 352.036 163.465 350.313L161.216 348.327Z" fill="#66CCCC"/>
</svg>
