<svg width="28" height="28" viewBox="0 0 28 28" fill="none" xmlns="http://www.w3.org/2000/svg">
<g opacity="0.3">
<path d="M19.1833 3.29206C14.8359 -1.05521 7.76218 -1.05512 3.41482 3.29206C-0.932545 7.63943 -0.932544 14.7131 3.41482 19.0603C7.10297 22.7485 12.5882 23.3071 16.8715 20.7376C16.8715 20.7376 17.1812 20.553 17.4303 20.8023C18.8523 22.2244 23.1189 26.4909 23.1189 26.4909C24.2511 27.6232 25.8343 27.8927 26.8386 26.8886L27.0113 26.7157C28.0156 25.7117 27.7461 24.1284 26.6138 22.9962C26.6138 22.9962 22.3562 18.7387 20.9371 17.3195C20.6759 17.0583 20.8605 16.7487 20.8605 16.7487C23.4299 12.4654 22.8714 6.98021 19.1833 3.29206ZM17.1247 17.0019C13.9125 20.2141 8.68581 20.214 5.47356 17.0018C2.26139 13.7895 2.2613 8.56288 5.47356 5.35072C8.68572 2.13846 13.9125 2.13846 17.1247 5.35071C20.3368 8.56297 20.3368 13.7895 17.1247 17.0019Z" fill="#66CCCC"/>
<path d="M10.636 16.2928C10.636 16.4423 10.6066 16.5943 10.5448 16.7408C10.2971 17.326 9.62183 17.5998 9.03653 17.3521C5.35768 15.7954 3.63125 11.536 5.18798 7.85723C5.43567 7.27201 6.11091 6.99822 6.69621 7.2459C7.28151 7.49367 7.55513 8.16873 7.30753 8.75421C6.24546 11.2641 7.42341 14.1705 9.93334 15.2325C10.3723 15.4183 10.636 15.8444 10.636 16.2928Z" fill="#66CCCC"/>
</g>
</svg>
