<svg width="30" height="30" viewBox="0 0 30 30" fill="none" xmlns="http://www.w3.org/2000/svg">
<g clip-path="url(#clip0)">
<path d="M21.5226 20.1102C21.0874 20.6151 20.6153 21.0873 20.1104 21.5225L28.5879 30.0001L30.0002 28.5878L21.5226 20.1102Z" fill="white"/>
<path d="M11.3847 0C5.10712 0 0 5.10712 0 11.3847C0 17.6622 5.10712 22.7693 11.3847 22.7693C17.6622 22.7693 22.7693 17.6622 22.7693 11.3847C22.7693 5.10712 17.6622 0 11.3847 0ZM17.5518 17.5518L16.1395 16.1395C18.7613 13.5177 18.7613 9.25167 16.1395 6.62987C13.5177 4.00807 9.25167 4.00807 6.62987 6.62987L5.21757 5.21757C8.61806 1.81702 14.1513 1.81702 17.5518 5.21757C20.9523 8.61813 20.9523 14.1512 17.5518 17.5518Z" fill="white"/>
</g>
<defs>
<clipPath id="clip0">
<rect width="30" height="30" fill="white"/>
</clipPath>
</defs>
</svg>
