<svg width="22" height="20" viewBox="0 0 22 20" fill="none" xmlns="http://www.w3.org/2000/svg">
<path d="M10.0866 1.04906C10.439 0.258571 11.561 0.258571 11.9134 1.04906L14.0803 5.91034C14.2256 6.23637 14.5337 6.46022 14.8887 6.49768L20.1817 7.05632C21.0423 7.14717 21.3891 8.21427 20.7462 8.79365L16.7924 12.3567C16.5273 12.5957 16.4096 12.9579 16.4836 13.3071L17.5879 18.5136C17.7675 19.3602 16.8598 20.0198 16.1101 19.5873L11.4996 16.9282C11.1904 16.7498 10.8096 16.7498 10.5004 16.9282L5.88991 19.5873C5.14021 20.0198 4.23248 19.3602 4.41205 18.5136L5.51637 13.3071C5.59043 12.9579 5.47275 12.5957 5.20759 12.3567L1.25385 8.79365C0.610933 8.21427 0.957655 7.14717 1.81834 7.05632L7.11131 6.49768C7.46629 6.46022 7.77439 6.23637 7.91971 5.91034L10.0866 1.04906Z" fill="#FEF05E"/>
</svg>
