<svg width="111" height="114" viewBox="0 0 111 114" fill="none" xmlns="http://www.w3.org/2000/svg">
<path d="M58.432 0H51.9395V12.9849H58.432V0Z" fill="#FEBC00"/>
<path d="M30.4023 5.76789L24.7796 9.01392L31.2717 20.2594L36.8944 17.0134L30.4023 5.76789Z" fill="#FEBC00"/>
<path d="M9.01534 24.7826L5.76892 30.4052L17.0139 36.898L20.2604 31.2755L9.01534 24.7826Z" fill="#FEBC00"/>
<path d="M12.9849 51.9396H0V58.432H12.9849V51.9396Z" fill="#FEBC00"/>
<path d="M110.372 51.9396H97.3867V58.432H110.372V51.9396Z" fill="#FEBC00"/>
<path d="M101.356 24.7808L90.1098 31.2722L93.3555 36.8951L104.601 30.4037L101.356 24.7808Z" fill="#FEBC00"/>
<path d="M79.9642 5.76945L73.4727 17.0153L79.0956 20.261L85.5871 9.01518L79.9642 5.76945Z" fill="#FEBC00"/>
<path d="M64.9244 94.1406H45.4471C44.5861 94.1406 43.7604 93.7986 43.1517 93.1898C42.5429 92.581 42.2009 91.7553 42.2009 90.8943C42.2797 82.6125 39.2362 74.6048 33.6763 68.4662C30.5717 65.0852 28.3074 61.0202 27.0669 56.6008C25.8265 52.1814 25.6448 47.5319 26.5367 43.0292C27.4285 38.5264 29.3688 34.2972 32.2001 30.6843C35.0315 27.0714 38.6743 24.1764 42.8333 22.2341C46.9924 20.2918 51.5505 19.3568 56.1383 19.5048C60.7261 19.6529 65.2145 20.8799 69.2396 23.0863C73.2647 25.2927 76.7133 28.4166 79.3058 32.2045C81.8984 35.9925 83.5619 40.338 84.1615 44.8889C84.6991 49.0634 84.332 53.3047 83.0851 57.3247C81.8383 61.3448 79.7409 65.0494 76.9354 68.187C71.4579 73.9568 68.3322 81.5639 68.1706 89.5179V90.8943C68.1706 91.7553 67.8286 92.581 67.2198 93.1898C66.6111 93.7986 65.7854 94.1406 64.9244 94.1406Z" fill="#FEBC00"/>
<path d="M48.6932 90.8944C48.7721 82.6125 45.7285 74.6049 40.1686 68.4662C36.5021 64.4888 34.0134 59.5706 32.9804 54.2606C31.9474 48.9506 32.4107 43.458 34.3187 38.3962C36.2266 33.3343 39.5041 28.9024 43.7851 25.5955C48.0661 22.2885 53.1821 20.2367 58.5617 19.669C52.6387 18.9788 46.6462 20.1176 41.3892 22.9324C36.1322 25.7473 31.8625 30.1033 29.1533 35.4155C26.4442 40.7278 25.4255 46.7418 26.234 52.6498C27.0425 58.5579 29.6395 64.0771 33.6762 68.4662C39.236 74.6049 42.2796 82.6125 42.2008 90.8944C42.2008 91.7553 42.5428 92.581 43.1516 93.1898C43.7603 93.7986 44.586 94.1406 45.447 94.1406H51.9394C51.0785 94.1406 50.2528 93.7986 49.644 93.1898C49.0352 92.581 48.6932 91.7553 48.6932 90.8944Z" fill="#EDAA03"/>
<path d="M58.432 90.8942H51.9395V58.4319C51.9397 57.5711 52.2818 56.7455 52.8907 56.1369L62.6293 46.3982L67.2195 50.9884L58.432 59.7759V90.8942Z" fill="#FDFEFF"/>
<path d="M47.4059 46.0649L42.8151 50.6558L52.8897 60.7304L57.4805 56.1395L47.4059 46.0649Z" fill="#FDFEFF"/>
<path d="M46.3366 110.605C45.0351 109.65 43.9807 108.397 43.2613 106.952C42.542 105.506 42.1784 103.91 42.2009 102.295V87.6481H68.1706V100.633C68.1706 110.625 56.8283 118.02 46.3366 110.605Z" fill="#F74E0C"/>
<path d="M52.829 110.605C51.5275 109.65 50.4732 108.397 49.7538 106.952C49.0344 105.506 48.6708 103.91 48.6933 102.295V87.6481H42.2009V102.295C42.1784 103.91 42.542 105.506 43.2613 106.952C43.9807 108.397 45.0351 109.65 46.3366 110.605C48.0282 111.903 49.9868 112.81 52.0712 113.259C54.1556 113.708 56.3137 113.689 58.3898 113.202C56.3894 112.694 54.5028 111.813 52.829 110.605Z" fill="#E03A07"/>
</svg>
