<svg width="185" height="106" viewBox="0 0 185 106" fill="none" xmlns="http://www.w3.org/2000/svg">
<path d="M50.0453 28.7023C49.8809 29.2295 50.1751 29.7902 50.7023 29.9547C51.2295 30.1191 51.7902 29.8249 51.9547 29.2977L50.0453 28.7023ZM119 19.2437L117.224 7.834L108.231 15.0766L119 19.2437ZM52.8695 26.8854C53.0832 26.3761 52.8436 25.7901 52.3344 25.5763C51.8251 25.3626 51.239 25.6022 51.0253 26.1114L52.8695 26.8854ZM53.4209 21.1806C53.1538 21.664 53.329 22.2724 53.8124 22.5396C54.2957 22.8067 54.9042 22.6315 55.1713 22.1481L53.4209 21.1806ZM57.9595 17.6792C58.2768 17.2271 58.1676 16.6034 57.7156 16.2862C57.2635 15.9689 56.6398 16.0781 56.3226 16.5301L57.9595 17.6792ZM59.735 12.2237C59.3665 12.6351 59.4012 13.2673 59.8126 13.6358C60.2239 14.0044 60.8561 13.9696 61.2247 13.5583L59.735 12.2237ZM64.9671 9.89606C65.3873 9.53773 65.4375 8.90656 65.0792 8.4863C64.7209 8.06603 64.0897 8.01582 63.6694 8.37415L64.9671 9.89606ZM68.123 5.11352C67.6538 5.40477 67.5095 6.02128 67.8007 6.49052C68.092 6.95976 68.7085 7.10405 69.1777 6.8128L68.123 5.11352ZM73.8096 4.43087C74.3198 4.2193 74.5618 3.63423 74.3503 3.12408C74.1387 2.61392 73.5536 2.37186 73.0435 2.58343L73.8096 4.43087ZM78.3071 0.894232C77.7692 1.01931 77.4345 1.55679 77.5596 2.09472C77.6846 2.63266 78.2221 2.96734 78.7601 2.84227L78.3071 0.894232ZM83.9747 2.06836C84.5258 2.0321 84.9432 1.55596 84.9069 1.00487C84.8707 0.453773 84.3945 0.0364164 83.8434 0.0726742L83.9747 2.06836ZM89.4813 0.175382C88.9319 0.119103 88.4409 0.518865 88.3846 1.06827C88.3283 1.61768 88.7281 2.10869 89.2775 2.16497L89.4813 0.175382ZM94.5025 3.13742C95.0357 3.28154 95.5847 2.96617 95.7288 2.43302C95.8729 1.89987 95.5576 1.35083 95.0244 1.20671L94.5025 3.13742ZM100.328 3.0772C99.8219 2.85639 99.2326 3.08776 99.0118 3.59399C98.791 4.10021 99.0223 4.68959 99.5285 4.91039L100.328 3.0772ZM104.281 7.3701C104.754 7.6545 105.368 7.50125 105.653 7.02782C105.937 6.55439 105.784 5.94005 105.311 5.65565L104.281 7.3701ZM109.932 8.80978C109.494 8.47363 108.867 8.55635 108.53 8.99455C108.194 9.43275 108.277 10.0605 108.715 10.3966L109.932 8.80978ZM112.809 13.8878C113.211 14.2669 113.844 14.2486 114.223 13.8469C114.602 13.4453 114.584 12.8124 114.182 12.4333L112.809 13.8878ZM118.046 16.4651C117.685 16.0469 117.053 16.0003 116.635 16.361C116.217 16.7217 116.17 17.3532 116.531 17.7714L118.046 16.4651ZM51 29C51.9547 29.2977 51.9546 29.2978 51.9546 29.2978C51.9546 29.2979 51.9546 29.2979 51.9546 29.298C51.9546 29.298 51.9545 29.2981 51.9545 29.2981C51.9545 29.2982 51.9545 29.2982 51.9545 29.2982C51.9545 29.2981 51.9546 29.2978 51.9548 29.2973C51.9551 29.2963 51.9557 29.2943 51.9566 29.2915C51.9584 29.2858 51.9614 29.2764 51.9656 29.2636C51.9739 29.2379 51.9869 29.198 52.0047 29.1448C52.0404 29.0383 52.0953 28.8782 52.1704 28.6698C52.3205 28.253 52.5512 27.6437 52.8695 26.8854L51.0253 26.1114C50.6926 26.9041 50.4496 27.5456 50.2888 27.9919C50.2084 28.215 50.1485 28.3895 50.1083 28.5097C50.0881 28.5698 50.0729 28.6163 50.0624 28.6487C50.0572 28.6648 50.0532 28.6775 50.0503 28.6864C50.0489 28.6909 50.0478 28.6945 50.047 28.6971C50.0465 28.6984 50.0462 28.6995 50.0459 28.7004C50.0458 28.7008 50.0457 28.7012 50.0456 28.7015C50.0455 28.7017 50.0455 28.7018 50.0454 28.702C50.0454 28.702 50.0454 28.7021 50.0454 28.7021C50.0454 28.7022 50.0453 28.7023 51 29ZM55.1713 22.1481C55.9451 20.7483 56.8701 19.2313 57.9595 17.6792L56.3226 16.5301C55.1873 18.1476 54.2249 19.7261 53.4209 21.1806L55.1713 22.1481ZM61.2247 13.5583C62.3546 12.2971 63.5997 11.0619 64.9671 9.89606L63.6694 8.37415C62.2277 9.60338 60.9189 10.9023 59.735 12.2237L61.2247 13.5583ZM69.1777 6.8128C70.6161 5.92001 72.1583 5.11569 73.8096 4.43087L73.0435 2.58343C71.2869 3.31188 69.6485 4.16664 68.123 5.11352L69.1777 6.8128ZM78.7601 2.84227C79.592 2.64882 80.4473 2.48493 81.3266 2.35346L81.0308 0.375452C80.0987 0.514826 79.1909 0.688727 78.3071 0.894232L78.7601 2.84227ZM81.3266 2.35346C82.2218 2.21961 83.1047 2.1256 83.9747 2.06836L83.8434 0.0726742C82.9186 0.13352 81.9809 0.233398 81.0308 0.375452L81.3266 2.35346ZM89.2775 2.16497C91.0859 2.35022 92.8293 2.68513 94.5025 3.13742L95.0244 1.20671C93.2533 0.727952 91.4035 0.372283 89.4813 0.175382L89.2775 2.16497ZM99.5285 4.91039C101.208 5.64316 102.795 6.47772 104.281 7.3701L105.311 5.65565C103.758 4.72321 102.095 3.84782 100.328 3.0772L99.5285 4.91039ZM108.715 10.3966C110.251 11.5751 111.621 12.7662 112.809 13.8878L114.182 12.4333C112.95 11.2709 111.529 10.0346 109.932 8.80978L108.715 10.3966Z" fill="#75E1D2"/>
<path d="M133.42 76.6205C133.584 76.0932 133.29 75.5325 132.763 75.3681C132.235 75.2037 131.675 75.4978 131.51 76.0251L133.42 76.6205ZM64.4649 86.0791L66.2405 97.4887L75.2338 90.2462L64.4649 86.0791ZM130.595 78.4374C130.382 78.9466 130.621 79.5327 131.131 79.7464C131.64 79.9602 132.226 79.7206 132.44 79.2113L130.595 78.4374ZM130.044 84.1421C130.311 83.6588 130.136 83.0504 129.653 82.7832C129.169 82.516 128.561 82.6913 128.294 83.1746L130.044 84.1421ZM125.505 87.6436C125.188 88.0956 125.297 88.7193 125.749 89.0366C126.201 89.3539 126.825 89.2447 127.142 88.7926L125.505 87.6436ZM123.73 93.099C124.098 92.6877 124.064 92.0554 123.652 91.6869C123.241 91.3184 122.609 91.3531 122.24 91.7645L123.73 93.099ZM118.498 95.4267C118.078 95.785 118.027 96.4162 118.386 96.8365C118.744 97.2567 119.375 97.3069 119.795 96.9486L118.498 95.4267ZM115.342 100.209C115.811 99.918 115.955 99.3015 115.664 98.8322C115.373 98.363 114.756 98.2187 114.287 98.51L115.342 100.209ZM109.655 100.892C109.145 101.103 108.903 101.689 109.115 102.199C109.326 102.709 109.911 102.951 110.421 102.739L109.655 100.892ZM105.158 104.429C105.696 104.303 106.03 103.766 105.905 103.228C105.78 102.69 105.243 102.355 104.705 102.48L105.158 104.429ZM99.4902 103.254C98.9391 103.291 98.5217 103.767 98.558 104.318C98.5943 104.869 99.0704 105.286 99.6215 105.25L99.4902 103.254ZM93.9836 105.147C94.533 105.204 95.024 104.804 95.0803 104.254C95.1366 103.705 94.7368 103.214 94.1874 103.158L93.9836 105.147ZM88.9624 102.185C88.4292 102.041 87.8802 102.357 87.7361 102.89C87.592 103.423 87.9073 103.972 88.4405 104.116L88.9624 102.185ZM83.1367 102.246C83.643 102.466 84.2323 102.235 84.4531 101.729C84.674 101.223 84.4426 100.633 83.9364 100.412L83.1367 102.246ZM79.1843 97.9526C78.7109 97.6683 78.0965 97.8215 77.8121 98.2949C77.5277 98.7684 77.681 99.3827 78.1544 99.6671L79.1843 97.9526ZM73.5324 96.513C73.9706 96.8491 74.5983 96.7664 74.9345 96.3282C75.2707 95.89 75.1879 95.2623 74.7497 94.9261L73.5324 96.513ZM70.6557 91.435C70.254 91.0559 69.6211 91.0742 69.2421 91.4758C68.863 91.8775 68.8813 92.5104 69.2829 92.8895L70.6557 91.435ZM65.4194 88.8577C65.7801 89.2759 66.4115 89.3225 66.8297 88.9617C67.2479 88.601 67.2945 87.9696 66.9338 87.5514L65.4194 88.8577ZM132.465 76.3228C131.51 76.0251 131.51 76.025 131.51 76.0249C131.51 76.0249 131.51 76.0248 131.51 76.0248C131.51 76.0247 131.51 76.0247 131.51 76.0246C131.51 76.0245 131.51 76.0245 131.51 76.0245C131.51 76.0246 131.51 76.0249 131.51 76.0254C131.51 76.0265 131.509 76.0284 131.508 76.0313C131.506 76.037 131.503 76.0463 131.499 76.0592C131.491 76.0849 131.478 76.1247 131.46 76.178C131.425 76.2844 131.37 76.4446 131.295 76.653C131.144 77.0697 130.914 77.679 130.595 78.4374L132.44 79.2113C132.772 78.4186 133.015 77.7771 133.176 77.3309C133.257 77.1077 133.316 76.9333 133.357 76.8131C133.377 76.753 133.392 76.7064 133.402 76.6741C133.408 76.6579 133.412 76.6453 133.415 76.6363C133.416 76.6319 133.417 76.6283 133.418 76.6256C133.418 76.6243 133.419 76.6232 133.419 76.6223C133.419 76.6219 133.419 76.6215 133.419 76.6212C133.419 76.6211 133.419 76.6209 133.419 76.6208C133.419 76.6207 133.42 76.6206 133.42 76.6206C133.42 76.6205 133.42 76.6205 132.465 76.3228ZM128.294 83.1746C127.52 84.5745 126.595 86.0915 125.505 87.6436L127.142 88.7926C128.278 87.1752 129.24 85.5966 130.044 84.1421L128.294 83.1746ZM122.24 91.7645C121.11 93.0257 119.865 94.2609 118.498 95.4267L119.795 96.9486C121.237 95.7194 122.546 94.4205 123.73 93.099L122.24 91.7645ZM114.287 98.51C112.849 99.4027 111.307 100.207 109.655 100.892L110.421 102.739C112.178 102.011 113.816 101.156 115.342 100.209L114.287 98.51ZM104.705 102.48C103.873 102.674 103.018 102.838 102.138 102.969L102.434 104.947C103.366 104.808 104.274 104.634 105.158 104.429L104.705 102.48ZM102.138 102.969C101.243 103.103 100.36 103.197 99.4902 103.254L99.6215 105.25C100.546 105.189 101.484 105.089 102.434 104.947L102.138 102.969ZM94.1874 103.158C92.379 102.973 90.6356 102.638 88.9624 102.185L88.4405 104.116C90.2116 104.595 92.0614 104.95 93.9836 105.147L94.1874 103.158ZM83.9364 100.412C82.2564 99.6796 80.6698 98.845 79.1843 97.9526L78.1544 99.6671C79.7066 100.6 81.37 101.475 83.1367 102.246L83.9364 100.412ZM74.7497 94.9261C73.2135 93.7476 71.844 92.5565 70.6557 91.435L69.2829 92.8895C70.5146 94.0519 71.9358 95.2881 73.5324 96.513L74.7497 94.9261Z" fill="#75E1D2"/>
<g filter="url(#filter0_d)">
<path d="M169 7H131L121 23V65H179V23L169 7Z" fill="#A98258"/>
<path d="M156 34H144C142.9 34 142 33.1 142 32C142 30.9 142.9 30 144 30H156C157.1 30 158 30.9 158 32C158 33.1 157.1 34 156 34Z" fill="#5B4631"/>
<path d="M158 58H142C141.448 58 141 58.447 141 59C141 59.553 141.448 60 142 60H158C158.552 60 159 59.553 159 59C159 58.447 158.552 58 158 58Z" fill="#E8D5B2"/>
<path d="M142 50C142.256 50 142.512 49.902 142.707 49.707L144 48.414V55C144 55.553 144.448 56 145 56C145.552 56 146 55.553 146 55V48.414L147.293 49.707C147.488 49.902 147.744 50 148 50C148.256 50 148.512 49.902 148.707 49.707C149.098 49.316 149.098 48.684 148.707 48.293L145.708 45.294C145.616 45.201 145.505 45.128 145.382 45.077C145.138 44.976 144.862 44.976 144.618 45.077C144.495 45.128 144.385 45.201 144.292 45.294L141.293 48.293C140.902 48.684 140.902 49.316 141.293 49.707C141.488 49.902 141.744 50 142 50Z" fill="#E8D5B2"/>
<path d="M152 50C152.256 50 152.512 49.902 152.707 49.707L154 48.414V55C154 55.553 154.448 56 155 56C155.552 56 156 55.553 156 55V48.414L157.293 49.707C157.488 49.902 157.744 50 158 50C158.256 50 158.512 49.902 158.707 49.707C159.098 49.316 159.098 48.684 158.707 48.293L155.708 45.294C155.616 45.201 155.505 45.128 155.382 45.077C155.138 44.976 154.862 44.976 154.618 45.077C154.495 45.128 154.385 45.201 154.292 45.294L151.293 48.293C150.902 48.684 150.902 49.316 151.293 49.707C151.488 49.902 151.744 50 152 50Z" fill="#E8D5B2"/>
<path d="M131 7L121 23H179L169 7H131Z" fill="#DAAE86"/>
<path d="M151 7H149V23H151V7Z" fill="#F4D5BD"/>
</g>
<g filter="url(#filter1_d)">
<path d="M10.6397 57.1577C9.99824 57.1577 9.47977 56.638 9.47977 55.9978V35.1194C9.47977 34.4791 9.99824 33.9595 10.6397 33.9595C11.2811 33.9595 11.7996 34.4791 11.7996 35.1194V55.9978C11.7996 56.638 11.2811 57.1577 10.6397 57.1577Z" fill="#BDC3C7"/>
<path d="M10.6397 36.2793C8.08085 36.2793 6 34.1984 6 31.6397C6 29.081 8.08085 27 10.6397 27C13.1985 27 15.2793 29.0808 15.2793 31.6397C15.2793 34.1985 13.1984 36.2793 10.6397 36.2793Z" fill="#ECF0F1"/>
<path d="M60.5158 55.9978H17.5992V44.4346C17.5992 42.4929 19.1732 40.9189 21.1149 40.9189H41.1779C46.0576 40.9189 50.6601 43.1854 53.6353 47.0537L60.5158 55.9978Z" fill="#556080"/>
<path d="M7.15991 58.5566V70.8377C7.15991 72.2505 8.30593 73.3966 9.71873 73.3966H12.9595C12.9595 69.5526 16.075 66.4371 19.919 66.4371C23.763 66.4371 26.8785 69.5526 26.8785 73.3966H54.7164C54.7164 69.5526 57.8319 66.4371 61.6759 66.4371C65.5199 66.4371 68.6354 69.5526 68.6354 73.3966H71.8761C73.2889 73.3966 74.435 72.2505 74.435 70.8377V58.5566C74.435 57.1438 73.2889 55.9978 71.8761 55.9978H9.71873C8.30593 55.9979 7.15991 57.144 7.15991 58.5566Z" fill="#35C3EE"/>
<path d="M26.8784 73.3965C26.8784 77.2404 23.7629 80.356 19.9189 80.356C16.0749 80.356 12.9594 77.2404 12.9594 73.3965C12.9594 69.5525 16.0749 66.437 19.9189 66.437C23.7629 66.437 26.8784 69.5526 26.8784 73.3965Z" fill="#556080"/>
<path d="M68.6353 73.3965C68.6353 77.2404 65.5197 80.356 61.6758 80.356C57.8318 80.356 54.7163 77.2404 54.7163 73.3965C54.7163 69.5525 57.8318 66.437 61.6758 66.437C65.5197 66.4371 68.6353 69.5526 68.6353 73.3965Z" fill="#556080"/>
<path d="M46.597 62.9573H40.7974C40.1559 62.9573 39.6375 62.4377 39.6375 61.7974C39.6375 61.1572 40.1559 60.6375 40.7974 60.6375H46.597C47.2384 60.6375 47.7569 61.1572 47.7569 61.7974C47.7569 62.4377 47.2384 62.9573 46.597 62.9573Z" fill="white"/>
<path d="M21.0789 73.3966C21.0789 74.0368 20.5592 74.5565 19.919 74.5565C19.2788 74.5565 18.7591 74.0368 18.7591 73.3966C18.7591 72.7563 19.2788 72.2366 19.919 72.2366C20.5592 72.2366 21.0789 72.7563 21.0789 73.3966Z" fill="#D1D4D1"/>
<path d="M62.8357 73.3964C62.8357 74.0367 62.316 74.5563 61.6757 74.5563C61.0355 74.5563 60.5158 74.0367 60.5158 73.3964C60.5158 72.7562 61.0355 72.2365 61.6757 72.2365C62.3161 72.2365 62.8357 72.7562 62.8357 73.3964Z" fill="#D1D4D1"/>
<path d="M74.4348 65.2772H70.9551C69.6734 65.2772 68.6353 64.239 68.6353 62.9573C68.6353 61.6757 69.6734 60.6375 70.9551 60.6375H74.4348V65.2772Z" fill="#F0C419"/>
<path d="M40.7974 64.1173C40.1559 64.1173 39.6375 63.5976 39.6375 62.9573V61.7974C39.6375 61.1572 40.1559 60.6375 40.7974 60.6375C41.4388 60.6375 41.9573 61.1572 41.9573 61.7974V62.9573C41.9573 63.5976 41.4388 64.1173 40.7974 64.1173Z" fill="white"/>
<path d="M46.597 64.1173C45.9555 64.1173 45.4371 63.5976 45.4371 62.9573V61.7974C45.4371 61.1572 45.9555 60.6375 46.597 60.6375C47.2384 60.6375 47.7569 61.1572 47.7569 61.7974V62.9573C47.7569 63.5976 47.2384 64.1173 46.597 64.1173Z" fill="white"/>
<path d="M41.4682 55.9978H46.3549L44.2636 49.6751C43.8623 48.4641 42.5435 47.8006 41.3326 48.2008C40.1216 48.6022 39.4581 49.9209 39.8583 51.1319L41.4682 55.9978Z" fill="#D1D4D1"/>
<path d="M25.2593 55.9986H30.1924L27.8993 49.6527C27.4666 48.4522 26.1292 47.8248 24.9299 48.2585C23.7293 48.6924 23.103 50.0286 23.5356 51.229L25.2593 55.9986Z" fill="#D1D4D1"/>
<path d="M11.7996 62.9573C12.441 62.9573 12.9595 62.4377 12.9595 61.7974C12.9595 61.1572 12.441 60.6375 11.7996 60.6375H7.15991V62.9573H11.7996Z" fill="white"/>
</g>
<defs>
<filter id="filter0_d" x="115" y="1" width="70" height="70" filterUnits="userSpaceOnUse" color-interpolation-filters="sRGB">
<feFlood flood-opacity="0" result="BackgroundImageFix"/>
<feColorMatrix in="SourceAlpha" type="matrix" values="0 0 0 0 0 0 0 0 0 0 0 0 0 0 0 0 0 0 127 0"/>
<feOffset/>
<feGaussianBlur stdDeviation="3"/>
<feColorMatrix type="matrix" values="0 0 0 0 0 0 0 0 0 0 0 0 0 0 0 0 0 0 0.075 0"/>
<feBlend mode="normal" in2="BackgroundImageFix" result="effect1_dropShadow"/>
<feBlend mode="normal" in="SourceGraphic" in2="effect1_dropShadow" result="shape"/>
</filter>
<filter id="filter1_d" x="0" y="21" width="80.435" height="65.3559" filterUnits="userSpaceOnUse" color-interpolation-filters="sRGB">
<feFlood flood-opacity="0" result="BackgroundImageFix"/>
<feColorMatrix in="SourceAlpha" type="matrix" values="0 0 0 0 0 0 0 0 0 0 0 0 0 0 0 0 0 0 127 0"/>
<feOffset/>
<feGaussianBlur stdDeviation="3"/>
<feColorMatrix type="matrix" values="0 0 0 0 0 0 0 0 0 0 0 0 0 0 0 0 0 0 0.075 0"/>
<feBlend mode="normal" in2="BackgroundImageFix" result="effect1_dropShadow"/>
<feBlend mode="normal" in="SourceGraphic" in2="effect1_dropShadow" result="shape"/>
</filter>
</defs>
</svg>
