<svg width="102" height="95" viewBox="0 0 102 95" fill="none" xmlns="http://www.w3.org/2000/svg">
<g filter="url(#filter0_d)">
<path d="M65.9815 27.9445H8.92593V48.426H65.9815V27.9445Z" fill="#C03A2B"/>
<path d="M14.9065 64.5185C18.1384 64.5185 20.7584 61.8986 20.7584 58.6667C20.7584 55.4348 18.1384 52.8148 14.9065 52.8148C11.6747 52.8148 9.05469 55.4348 9.05469 58.6667C9.05469 61.8986 11.6747 64.5185 14.9065 64.5185Z" fill="#C03A2B"/>
<path d="M30.9991 64.5185C34.231 64.5185 36.851 61.8986 36.851 58.6667C36.851 55.4348 34.231 52.8148 30.9991 52.8148C27.7673 52.8148 25.1473 55.4348 25.1473 58.6667C25.1473 61.8986 27.7673 64.5185 30.9991 64.5185Z" fill="#C03A2B"/>
<path d="M47.0918 64.5185C50.3236 64.5185 52.9436 61.8986 52.9436 58.6667C52.9436 55.4348 50.3236 52.8148 47.0918 52.8148C43.8599 52.8148 41.2399 55.4348 41.2399 58.6667C41.2399 61.8986 43.8599 64.5185 47.0918 64.5185Z" fill="#C03A2B"/>
<path d="M63.1843 64.5185C66.4162 64.5185 69.0362 61.8986 69.0362 58.6667C69.0362 55.4348 66.4162 52.8148 63.1843 52.8148C59.9525 52.8148 57.3325 55.4348 57.3325 58.6667C57.3325 61.8986 59.9525 64.5185 63.1843 64.5185Z" fill="#C03A2B"/>
<path d="M84.8713 57.2038H72.0894C72.0192 57.2038 71.9607 57.1467 71.9607 57.075V48.426V40.033C71.9607 39.9101 72.1172 39.8574 72.1918 39.9554L84.9737 56.9975C85.0381 57.0824 84.9766 57.2038 84.8713 57.2038Z" fill="#F3D55B"/>
<path d="M61.5926 17.7037H48.4259V27.9445H61.5926V17.7037Z" fill="#F0C419"/>
<path d="M61.5927 17.7037H48.426L45.5337 12.6682C44.931 11.6661 45.6537 10.3889 46.824 10.3889H63.4506C64.621 10.3889 65.3437 11.6661 64.741 12.6682L61.5927 17.7037Z" fill="#BF9A22"/>
<path d="M6 48.426V57.2037H9.26095C9.91343 54.6845 12.1825 52.8149 14.9065 52.8149C17.6306 52.8149 19.8996 54.6845 20.5521 57.2037H25.355C26.0075 54.6845 28.2766 52.8149 31.0006 52.8149C33.7246 52.8149 35.9937 54.6845 36.6462 57.2037H41.4491C42.1016 54.6845 44.3706 52.8149 47.0947 52.8149C49.8187 52.8149 52.0877 54.6845 52.7402 57.2037H57.5431C58.1956 54.6845 60.4647 52.8149 63.1887 52.8149C65.9128 52.8149 68.1818 54.6845 68.8343 57.2037H71.9665V48.426H6Z" fill="#E04B3F"/>
<path d="M35.2593 7.46295H11.8519V27.9444H35.2593V7.46295Z" fill="#E04B3F"/>
<path d="M38.314 8.92593H9.05468C8.24567 8.92593 7.59172 8.27052 7.59172 7.46296C7.59172 6.65541 8.24567 6 9.05468 6H38.314C39.123 6 39.7769 6.65541 39.7769 7.46296C39.7769 8.27052 39.123 8.92593 38.314 8.92593Z" fill="#C03A2B"/>
<path d="M29.4074 13.3148H17.7037V27.9445H29.4074V13.3148Z" fill="#F3D55B"/>
<path d="M23.5556 44.037C26.7875 44.037 29.4074 41.4171 29.4074 38.1852C29.4074 34.9533 26.7875 32.3333 23.5556 32.3333C20.3237 32.3333 17.7037 34.9533 17.7037 38.1852C17.7037 41.4171 20.3237 44.037 23.5556 44.037Z" fill="#F3D55B"/>
<path d="M41.1111 44.037C40.7366 44.037 40.3621 43.8937 40.0768 43.6084C39.5048 43.0364 39.5048 42.1118 40.0768 41.5397L48.8546 32.762C49.4266 32.1899 50.3512 32.1899 50.9232 32.762C51.4953 33.334 51.4953 34.2586 50.9232 34.8306L42.1455 43.6084C41.8602 43.8937 41.4857 44.037 41.1111 44.037Z" fill="#F9EAB0"/>
<path d="M49.8889 44.037C49.5144 44.037 49.1399 43.8937 48.8546 43.6084C48.2826 43.0364 48.2826 42.1118 48.8546 41.5397L57.6324 32.762C58.2044 32.1899 59.129 32.1899 59.701 32.762C60.273 33.334 60.273 34.2586 59.701 34.8306L50.9232 43.6084C50.638 43.8937 50.2634 44.037 49.8889 44.037Z" fill="#F9EAB0"/>
</g>
<g filter="url(#filter1_d)">
<path d="M95.3997 79.5931L83.2603 67.4533L91.9208 62.4509C92.5976 62.06 92.9913 61.3171 92.935 60.5377C92.8787 59.758 92.3821 59.0792 91.6563 58.7898L53.0371 43.3846C52.28 43.0822 51.4156 43.2603 50.839 43.8366C50.2625 44.4133 50.0845 45.2776 50.3866 46.0347L65.7894 84.6584C66.079 85.3842 66.7578 85.881 67.5374 85.9373C68.3171 85.994 69.0602 85.6001 69.4508 84.9231L74.4528 76.2626L86.5914 88.4024C86.9739 88.785 87.4931 89.0001 88.0339 89.0001C88.5751 89.0001 89.0939 88.785 89.4763 88.4024L95.3999 82.478C96.1964 81.6813 96.1964 80.3898 95.3997 79.5931Z" fill="#75E1D2"/>
<path d="M43.9569 34.0695C43.1602 33.2735 41.869 33.2733 41.0719 34.0695C40.2754 34.8662 40.2754 36.1579 41.0719 36.9546L45.6045 41.4873C46.0028 41.8856 46.5247 42.0848 47.047 42.0848C47.5689 42.0848 48.091 41.8856 48.4892 41.4873C49.2859 40.6906 49.2859 39.3991 48.4892 38.6024L43.9569 34.0695Z" fill="#75E1D2"/>
<path d="M45.493 48.1721C45.493 47.0458 44.5797 46.1322 43.4529 46.1322H37.0428C35.9162 46.1322 35.0027 47.0456 35.0027 48.1721C35.0027 49.2987 35.916 50.2122 37.0428 50.2122H43.4529C44.5797 50.212 45.493 49.2987 45.493 48.1721Z" fill="#75E1D2"/>
<path d="M44.6662 54.468L40.1328 59.0011C39.3364 59.7978 39.3364 61.0895 40.1328 61.886C40.5313 62.2843 41.0534 62.4835 41.5753 62.4835C42.0972 62.4835 42.6195 62.2843 43.0177 61.886L47.5508 57.3531C48.3475 56.5564 48.3475 55.2647 47.5508 54.468C46.7543 53.672 45.4633 53.6718 44.6662 54.468Z" fill="#75E1D2"/>
<path d="M55.1735 38.4908C56.3001 38.4908 57.2136 37.5774 57.2136 36.4507V30.0399C57.2136 28.9134 56.3003 28 55.1735 28C54.0472 28 53.1336 28.9132 53.1336 30.0399V36.4509C53.1336 37.5774 54.047 38.4908 55.1735 38.4908Z" fill="#75E1D2"/>
<path d="M62.9109 41.146C63.4332 41.146 63.9551 40.9468 64.3533 40.5485L68.8858 36.0159C69.6825 35.2192 69.6825 33.9275 68.8858 33.1308C68.0891 32.3345 66.7974 32.3345 66.0009 33.1308L61.4685 37.6637C60.6718 38.4604 60.6718 39.7521 61.4685 40.5485C61.8669 40.9468 62.3888 41.146 62.9109 41.146Z" fill="#75E1D2"/>
</g>
<defs>
<filter id="filter0_d" x="0" y="0" width="91" height="70.5185" filterUnits="userSpaceOnUse" color-interpolation-filters="sRGB">
<feFlood flood-opacity="0" result="BackgroundImageFix"/>
<feColorMatrix in="SourceAlpha" type="matrix" values="0 0 0 0 0 0 0 0 0 0 0 0 0 0 0 0 0 0 127 0"/>
<feOffset/>
<feGaussianBlur stdDeviation="3"/>
<feColorMatrix type="matrix" values="0 0 0 0 0 0 0 0 0 0 0 0 0 0 0 0 0 0 0.075 0"/>
<feBlend mode="normal" in2="BackgroundImageFix" result="effect1_dropShadow"/>
<feBlend mode="normal" in="SourceGraphic" in2="effect1_dropShadow" result="shape"/>
</filter>
<filter id="filter1_d" x="29" y="22" width="73" height="73" filterUnits="userSpaceOnUse" color-interpolation-filters="sRGB">
<feFlood flood-opacity="0" result="BackgroundImageFix"/>
<feColorMatrix in="SourceAlpha" type="matrix" values="0 0 0 0 0 0 0 0 0 0 0 0 0 0 0 0 0 0 127 0"/>
<feOffset/>
<feGaussianBlur stdDeviation="3"/>
<feColorMatrix type="matrix" values="0 0 0 0 0 0 0 0 0 0 0 0 0 0 0 0 0 0 0.075 0"/>
<feBlend mode="normal" in2="BackgroundImageFix" result="effect1_dropShadow"/>
<feBlend mode="normal" in="SourceGraphic" in2="effect1_dropShadow" result="shape"/>
</filter>
</defs>
</svg>
