<svg width="128" height="128" viewBox="0 0 128 128" fill="none" xmlns="http://www.w3.org/2000/svg">
<g clip-path="url(#clip0)">
<path d="M68.1752 68.014C65.973 65.8115 65.9727 62.2403 68.1752 60.0378C70.378 57.8353 73.949 57.8355 76.1515 60.0378L93.1657 77.0523C95.3682 79.2548 95.3685 82.826 93.1657 85.0285C90.9632 87.231 87.392 87.231 85.1898 85.0285L68.1752 68.014Z" fill="#00AF41"/>
<path opacity="0.1" d="M68.1752 60.0378C65.9727 62.2403 65.973 65.8115 68.1752 68.014L74.0625 73.9013C75.5573 72.7923 76.9902 71.5625 78.3455 70.2078C79.7 68.8533 80.9297 67.4203 82.0387 65.9251L76.1515 60.0375C73.9492 57.8355 70.3782 57.8353 68.1752 60.0378Z" fill="black"/>
<path d="M74.6885 19.7395C61.762 6.81328 14.6238 -3.82872 9.46626 1.32853C4.30876 6.48628 14.9505 53.6248 27.877 66.551C40.8035 79.4773 61.7615 79.4775 74.6885 66.5508C87.6147 53.6243 87.6147 32.6663 74.6885 19.7395Z" fill="#00AF41"/>
<path opacity="0.1" d="M74.6885 19.7395C61.762 6.81328 14.6238 -3.82872 9.46626 1.32853C4.30876 6.48628 14.9505 53.6248 27.877 66.551C40.8035 79.4773 61.7615 79.4775 74.6885 66.5508C87.6147 53.6243 87.6147 32.6663 74.6885 19.7395Z" fill="black"/>
<path d="M55.4438 28.527C59.1057 28.527 62.0743 25.5584 62.0743 21.8965C62.0743 18.2346 59.1057 15.266 55.4438 15.266C51.7818 15.266 48.8133 18.2346 48.8133 21.8965C48.8133 25.5584 51.7818 28.527 55.4438 28.527Z" fill="white"/>
<path opacity="0.2" d="M60.299 54.258C59.762 54.258 59.225 54.0532 58.8153 53.6432L26.1458 20.9742C25.3263 20.1547 25.3263 18.826 26.1458 18.0067C26.9653 17.1872 28.294 17.1872 29.1133 18.0067L61.7825 50.6757C62.602 51.4952 62.602 52.824 61.7825 53.6435C61.373 54.0532 60.8358 54.258 60.299 54.258Z" fill="black"/>
<path d="M43.1248 78.1612C45.7995 76.5652 49.262 77.44 50.8583 80.1145C52.4545 82.7895 51.5795 86.252 48.9048 87.8482L28.2415 100.177C25.5665 101.773 22.104 100.899 20.508 98.2235C18.9118 95.5487 19.7865 92.0862 22.4613 90.4902L43.1248 78.1612Z" fill="#72D54A"/>
<path opacity="0.1" d="M50.8583 80.1145C49.262 77.44 45.7995 76.5652 43.1248 78.1612L35.975 82.427C36.684 84.1482 37.5255 85.839 38.507 87.4845C39.4883 89.1297 40.577 90.6727 41.7545 92.1142L48.9043 87.8482C51.5795 86.252 52.4545 82.7895 50.8583 80.1145Z" fill="black"/>
<path d="M88.334 96.2993C104.032 86.932 125.895 43.8355 122.158 37.572C118.42 31.3088 70.1115 30.0818 54.4128 39.4485C38.7143 48.815 33.5813 69.135 42.9483 84.8343C52.3153 100.533 72.635 105.666 88.334 96.2993Z" fill="#72D54A"/>
<path d="M82.3513 90.7302C86.0132 90.7302 88.9818 87.7617 88.9818 84.0997C88.9818 80.4378 86.0132 77.4692 82.3513 77.4692C78.6893 77.4692 75.7208 80.4378 75.7208 84.0997C75.7208 87.7617 78.6893 90.7302 82.3513 90.7302Z" fill="white"/>
<path d="M94.6173 77.2138C97.0585 77.2138 99.0375 75.2348 99.0375 72.7935C99.0375 70.3523 97.0585 68.3733 94.6173 68.3733C92.176 68.3733 90.197 70.3523 90.197 72.7935C90.197 75.2348 92.176 77.2138 94.6173 77.2138Z" fill="white"/>
<path opacity="0.2" d="M60.4277 76.5063C59.713 76.5063 59.0165 76.1411 58.6237 75.4828C58.0297 74.4876 58.3552 73.1993 59.3507 72.6058L99.0262 48.9326C100.022 48.3386 101.31 48.6641 101.903 49.6596C102.497 50.6548 102.171 51.9431 101.176 52.5366L61.5007 76.2098C61.1637 76.4105 60.7932 76.5063 60.4277 76.5063Z" fill="black"/>
<path d="M126.142 123.8C126.904 126.11 125.538 128 123.105 128H4.89501C2.46251 128 1.09601 126.11 1.85826 123.8L8.00401 105.176C8.76651 102.866 11.3803 100.976 13.8128 100.976H114.187C116.62 100.976 119.234 102.866 119.996 105.176L126.142 123.8Z" fill="#6E4C4B"/>
<path d="M90.9298 111.266C90.9298 109.645 89.603 108.318 87.9813 108.318H40.019C38.3972 108.318 37.0705 109.645 37.0705 111.266V117.709C37.0705 119.331 38.3972 120.657 40.019 120.657H87.9813C89.603 120.657 90.9298 119.331 90.9298 117.709V111.266Z" fill="#C3C6C8"/>
<path opacity="0.2" d="M77.2515 116.587H50.7485C49.5895 116.587 48.65 115.647 48.65 114.488C48.65 113.329 49.5895 112.39 50.7485 112.39H77.2515C78.4105 112.39 79.35 113.329 79.35 114.488C79.35 115.647 78.4105 116.587 77.2515 116.587Z" fill="black"/>
</g>
<defs>
<clipPath id="clip0">
<rect width="128" height="128" fill="white"/>
</clipPath>
</defs>
</svg>
