<svg width="140" height="112" viewBox="0 0 140 112" fill="none" xmlns="http://www.w3.org/2000/svg">
<path d="M137 103.898V110H3V103.898C3 98.4319 7.2433 94 12.4769 94H14.4606H26.2149H113.785H125.539H127.523C132.757 94 137 98.4319 137 103.898Z" fill="#F0C419"/>
<path d="M126.076 83C129.348 83 132 85.4622 132 88.5C132 91.5378 129.348 94 126.076 94H113.924C110.652 94 108 91.5378 108 88.5C108 86.9826 108.662 85.6062 109.735 84.6105C110.807 83.6149 112.29 83 113.924 83H120H126.076Z" fill="#97C2F7"/>
<path d="M83 60.5861V65.3227C83 68.4584 80.3139 71 77 71C73.6861 71 71 68.4584 71 65.3227V53.6773C71 50.5416 73.6861 48 77 48C78.6554 48 80.1569 48.6347 81.2431 49.6624C82.3292 50.6902 83 52.1079 83 53.6773V60.5861Z" fill="#F78A68"/>
<path d="M47 8.67726V20.3227C47 23.4584 44.3139 26 41 26C37.6861 26 35 23.4584 35 20.3227V8.67726C35 5.54157 37.6861 3 41 3C42.6554 3 44.1569 3.63472 45.2431 4.66244C46.3292 5.69017 47 7.1109 47 8.67726Z" fill="#F0DF9E"/>
<path d="M26.3227 71C29.4584 71 32 73.6943 32 77.0185C32 80.1143 29.796 82.6634 26.9604 83C26.7509 82.9722 26.5382 82.9598 26.3227 82.9598H14.6773C14.4618 82.9598 14.2493 82.9722 14.0396 83C11.2038 82.6637 9 80.1143 9 77.0185C9 75.3548 9.63472 73.8519 10.6624 72.7624C11.6902 71.6729 13.1109 71 14.6773 71H20.5001H26.3227Z" fill="#DAEDE2"/>
<path d="M26.9604 83C29.7962 83.3057 32 85.643 32 88.4816C32 91.5295 29.4584 94 26.3227 94H14.6773C11.5416 94 9 91.5295 9 88.4816C9 86.9591 9.63472 85.5781 10.6624 84.5791C11.5475 83.7188 12.7266 83.1415 14.0396 83C14.2491 83.0226 14.4618 83.0339 14.6773 83.0339H26.3227C26.5382 83.0339 26.7507 83.0226 26.9604 83Z" fill="#FB7B76"/>
<path d="M133.206 92.1837C133.881 90.9529 134.265 89.542 134.265 88.0433C134.265 83.2697 130.373 79.3857 125.588 79.3857H122.647V65.202C122.647 63.5811 121.33 62.2673 119.706 62.2673C118.082 62.2673 116.765 63.5813 116.765 65.202V79.3857H113.824C111.506 79.3857 109.327 80.2861 107.689 81.9207C106.05 83.5556 105.148 85.7299 105.148 88.0433C105.148 89.0185 105.312 89.9559 105.612 90.8312H34.3892C34.6886 89.9557 34.8532 89.0185 34.8532 88.0433C34.8532 85.8764 34.0545 83.8836 32.7229 82.357C34.054 80.8302 34.8532 78.8373 34.8532 76.6712C34.8532 71.8976 30.9611 68.0137 26.1768 68.0137H23.2354V28.7606C23.2354 23.3875 27.0146 18.8818 32.059 17.7427V20.3966C32.059 25.1703 35.9511 29.0542 40.7354 29.0542C45.5198 29.0542 49.4119 25.1703 49.4119 20.3966V17.7184C54.5096 18.8177 58.3413 23.3501 58.3413 28.7609V47.5434C58.3413 54.4193 62.3586 60.4895 68.5236 63.222V65.2252C68.5236 69.9989 72.4157 73.8828 77.2 73.8828C81.9844 73.8828 85.8765 69.9989 85.8765 65.2252V62.1986C90.9373 59.1056 94.1176 53.5435 94.1176 47.5431V41.3801C94.1176 35.1498 99.1973 30.0812 105.441 30.0812C108.465 30.0812 111.31 31.2563 113.449 33.3878C115.587 35.5241 116.765 38.3625 116.765 41.3801V43.6076C116.765 45.2286 118.082 46.5423 119.706 46.5423C121.33 46.5423 122.647 45.2283 122.647 43.6076V41.3801C122.647 36.7958 120.858 32.4844 117.608 29.2375C114.356 25.9967 110.035 24.2118 105.441 24.2118C95.9535 24.2118 88.2352 31.9136 88.2352 41.3801V47.5431C88.2352 50.0743 87.3711 52.4846 85.8762 54.4275V53.4859C85.8762 51.1727 84.9739 48.9984 83.3352 47.3636C81.697 45.7287 79.5177 44.8283 77.1998 44.8283C72.4154 44.8283 68.5233 48.7122 68.5233 53.4859V56.4206C65.8559 54.3279 64.2232 51.0996 64.2232 47.5428V28.7603C64.2232 20.1044 57.769 12.9284 49.4113 11.7617V8.65757C49.4113 6.34441 48.509 4.17013 46.8703 2.53498C45.2318 0.90038 43.0528 0 40.7349 0C35.9505 0 32.0584 3.88391 32.0584 8.65757V11.7759C23.7519 12.9879 17.3524 20.1418 17.3524 28.7609V68.0137H14.4118C12.0939 68.0137 9.91514 68.914 8.27642 70.5487C6.63798 72.1835 5.73536 74.3578 5.73536 76.6712C5.73536 78.839 6.53544 80.8326 7.86873 82.3603C6.49033 83.936 5.73536 85.931 5.73536 88.0436C5.73536 89.5423 6.11954 90.9535 6.79384 92.184C2.76583 94.2371 0 98.4163 0 103.231V109.065C0 110.686 1.31715 112 2.9411 112H137.059C138.683 112 140 110.686 140 109.065V103.231C140 98.4163 137.234 94.2371 133.206 92.1837ZM74.406 53.4862C74.406 51.949 75.6595 50.6983 77.2 50.6983C77.9468 50.6983 78.6484 50.988 79.1762 51.5146C79.7036 52.0409 79.994 52.741 79.994 53.4862V65.2252C79.994 66.7624 78.7406 68.0134 77.2 68.0134C75.6595 68.0134 74.406 66.7627 74.406 65.2252V53.4862ZM37.9412 8.65757C37.9412 7.12037 39.1946 5.86966 40.7352 5.86966C41.4819 5.86966 42.1841 6.1597 42.7116 6.68601C43.239 7.21205 43.5291 7.91244 43.5291 8.65757V20.3966C43.5291 21.9338 42.2757 23.1845 40.7352 23.1845C39.1946 23.1845 37.9412 21.9338 37.9412 20.3966V8.65757ZM111.03 88.0433C111.03 87.2979 111.32 86.5975 111.847 86.0718C112.375 85.5452 113.077 85.2554 113.824 85.2554H125.588C127.129 85.2554 128.382 86.5061 128.382 88.0436C128.382 89.5808 127.129 90.8315 125.588 90.8315H113.824C112.283 90.8312 111.03 89.5805 111.03 88.0433ZM14.4118 90.8312C12.8713 90.8312 11.6178 89.5805 11.6178 88.0433C11.6178 87.2979 11.9082 86.5975 12.4357 86.0715C12.8267 85.6811 13.3276 85.4158 13.8655 85.3103C14.0473 85.3214 14.2297 85.3285 14.4116 85.3285H26.1762C26.3572 85.3285 26.538 85.3217 26.7185 85.3105C28.0167 85.5605 28.9702 86.6971 28.9702 88.043C28.9702 89.5802 27.7168 90.8312 26.1762 90.8312H14.4118ZM12.4354 74.6994C12.9632 74.1728 13.6651 73.8831 14.4118 73.8831H26.1765C27.717 73.8831 28.9705 75.1338 28.9705 76.671C28.9705 78.0933 27.9057 79.2842 26.4959 79.4417C26.3922 79.4531 26.2848 79.4589 26.1765 79.4589H14.4118C14.3035 79.4589 14.1958 79.4529 14.0946 79.442C12.6823 79.2843 11.6176 78.093 11.6176 76.671C11.6176 75.9258 11.908 75.2252 12.4354 74.6994ZM134.118 106.13H5.88247V103.231C5.88247 99.6301 8.8181 96.7009 12.4267 96.7009H14.4121H26.1768H113.824H125.589H127.574C131.183 96.7009 134.118 99.6301 134.118 103.231V106.13H134.118Z" fill="#BB6BD9"/>
<path d="M120 50C118.343 50 117 51.4739 117 53.2919V55.7081C117 57.5264 118.344 59 120 59C121.656 59 123 57.5261 123 55.7081V53.2919C123 51.4739 121.656 50 120 50Z" fill="black"/>
</svg>
